<svg width="1600" height="203" viewBox="0 0 1600 203" fill="none" xmlns="http://www.w3.org/2000/svg">
<path d="M1600 203L1555.56 172.55C1511.11 142.1 1422.22 81.2 1333.33 74.4122C1244.44 67.8781 1155.56 114.822 1066.67 115.012C977.778 114.822 888.889 67.8781 800 67.6878C711.111 67.8781 622.222 114.822 533.333 135.312C444.444 155.422 355.556 149.078 266.667 131.95C177.778 114.822 88.8889 88.1781 44.4445 74.4122L0 60.9V0L44.4445 0C88.8889 0 177.778 0 266.667 0C355.556 0 444.444 0 533.333 0C622.222 0 711.111 0 800 0C888.889 0 977.778 0 1066.67 0C1155.56 0 1244.44 0 1333.33 0C1422.22 0 1511.11 0 1555.56 0L1600 0V203Z" fill="#6D9773" fill-opacity="0.1"/>
</svg>
