<svg width="100" height="64" viewBox="0 0 100 64" fill="none" xmlns="http://www.w3.org/2000/svg">
<path d="M20 42V2" stroke="#BB8A52" stroke-width="3" stroke-linecap="round"/>
<path d="M32 38V6" stroke="#6D9773" stroke-width="3" stroke-linecap="round"/>
<path d="M44 39.5V4.5" stroke="#FFBA00" stroke-width="3" stroke-linecap="round"/>
<path d="M56 34.5V9.5" stroke="#6D9773" stroke-width="3" stroke-linecap="round"/>
<path d="M68 42V2" stroke="#BB8A52" stroke-width="3" stroke-linecap="round"/>
<path d="M80 40V4" stroke="#0C3E2E" stroke-width="3" stroke-linecap="round"/>
<path d="M4.49746 60.195C3.8388 60.195 3.26246 60.0997 2.76846 59.909C2.2788 59.714 1.86713 59.4648 1.53346 59.1615C1.20413 58.8538 0.950631 58.531 0.772965 58.193L2.11196 57.283C2.21596 57.5213 2.36763 57.751 2.56696 57.972C2.7663 58.1887 3.02846 58.3685 3.35346 58.5115C3.67846 58.6502 4.08146 58.7195 4.56246 58.7195C5.02613 58.7195 5.4053 58.6502 5.69996 58.5115C5.99463 58.3728 6.2113 58.1908 6.34996 57.9655C6.48863 57.7402 6.55796 57.4953 6.55796 57.231C6.55796 56.9017 6.46696 56.6482 6.28496 56.4705C6.10296 56.2885 5.86463 56.1628 5.56996 56.0935C5.2753 56.0198 4.96113 55.9787 4.62746 55.97C4.32413 55.9613 4.1053 55.9548 3.97096 55.9505C3.83663 55.9462 3.7478 55.944 3.70446 55.944C3.66113 55.944 3.61996 55.944 3.58096 55.944V54.462C3.62863 54.462 3.7088 54.462 3.82146 54.462C3.93846 54.462 4.05763 54.462 4.17896 54.462C4.30463 54.4577 4.40646 54.4533 4.48446 54.449C4.97846 54.4273 5.38363 54.3125 5.69996 54.1045C6.02063 53.8965 6.18096 53.5888 6.18096 53.1815C6.18096 52.7872 6.03146 52.4773 5.73246 52.252C5.4378 52.0267 5.04563 51.914 4.55596 51.914C4.09663 51.914 3.69146 52.0158 3.34046 52.2195C2.9938 52.4232 2.73163 52.6637 2.55396 52.941L1.45546 51.823C1.7718 51.4373 2.2008 51.1123 2.74246 50.848C3.28846 50.5793 3.90813 50.445 4.60146 50.445C5.0088 50.445 5.4053 50.4992 5.79096 50.6075C6.17663 50.7115 6.5233 50.8718 6.83096 51.0885C7.13863 51.3052 7.38346 51.5825 7.56546 51.9205C7.74746 52.2585 7.83846 52.6615 7.83846 53.1295C7.83846 53.5585 7.75613 53.955 7.59146 54.319C7.43113 54.6787 7.2058 54.9733 6.91546 55.203C7.32713 55.3677 7.64563 55.619 7.87096 55.957C8.10063 56.295 8.21546 56.7218 8.21546 57.2375C8.21546 57.8442 8.0508 58.3685 7.72146 58.8105C7.39213 59.2525 6.9458 59.5948 6.38246 59.8375C5.82346 60.0758 5.19513 60.195 4.49746 60.195ZM12.8163 60.195C12.1057 60.195 11.4817 60.0412 10.9443 59.7335C10.407 59.4258 9.98668 58.999 9.68335 58.453C9.38435 57.907 9.23485 57.2787 9.23485 56.568C9.23485 55.801 9.38218 55.1358 9.67685 54.5725C9.97151 54.0048 10.381 53.565 10.9053 53.253C11.4297 52.941 12.0363 52.785 12.7253 52.785C13.4533 52.785 14.0708 52.9562 14.5778 53.2985C15.0892 53.6365 15.4683 54.1153 15.7153 54.735C15.9623 55.3547 16.0555 56.0848 15.9948 56.9255H14.4413V56.3535C14.437 55.5908 14.3027 55.034 14.0383 54.683C13.774 54.332 13.358 54.1565 12.7903 54.1565C12.149 54.1565 11.6723 54.3558 11.3603 54.7545C11.0483 55.1488 10.8923 55.7273 10.8923 56.49C10.8923 57.2007 11.0483 57.751 11.3603 58.141C11.6723 58.531 12.1273 58.726 12.7253 58.726C13.111 58.726 13.4425 58.6415 13.7198 58.4725C14.0015 58.2992 14.2182 58.05 14.3698 57.725L15.9168 58.193C15.6482 58.8257 15.2322 59.3175 14.6688 59.6685C14.1098 60.0195 13.4923 60.195 12.8163 60.195ZM10.3983 56.9255V55.7425H15.2278V56.9255H10.3983ZM16.7952 60V58.687C17.0508 58.7347 17.248 58.7303 17.3867 58.674C17.5253 58.6133 17.6293 58.5007 17.6987 58.336C17.768 58.1713 17.8287 57.9525 17.8807 57.6795C17.95 57.2938 18.0107 56.8497 18.0627 56.347C18.119 55.8443 18.1667 55.307 18.2057 54.735C18.249 54.163 18.288 53.578 18.3227 52.98H23.4902V60H21.9302V54.449H19.7007C19.679 54.7307 19.653 55.047 19.6227 55.398C19.5923 55.7447 19.5598 56.0957 19.5252 56.451C19.4905 56.8063 19.4515 57.1443 19.4082 57.465C19.3692 57.7813 19.328 58.0522 19.2847 58.2775C19.185 58.7845 19.042 59.1853 18.8557 59.48C18.6737 59.7747 18.418 59.9632 18.0887 60.0455C17.7593 60.1322 17.3282 60.117 16.7952 60ZM28.5078 60.195C27.7971 60.195 27.1731 60.0412 26.6358 59.7335C26.0984 59.4258 25.6781 58.999 25.3748 58.453C25.0758 57.907 24.9263 57.2787 24.9263 56.568C24.9263 55.801 25.0736 55.1358 25.3683 54.5725C25.6629 54.0048 26.0724 53.565 26.5968 53.253C27.1211 52.941 27.7278 52.785 28.4168 52.785C29.1448 52.785 29.7623 52.9562 30.2693 53.2985C30.7806 53.6365 31.1598 54.1153 31.4068 54.735C31.6538 55.3547 31.7469 56.0848 31.6863 56.9255H30.1328V56.3535C30.1284 55.5908 29.9941 55.034 29.7298 54.683C29.4654 54.332 29.0494 54.1565 28.4818 54.1565C27.8404 54.1565 27.3638 54.3558 27.0518 54.7545C26.7398 55.1488 26.5838 55.7273 26.5838 56.49C26.5838 57.2007 26.7398 57.751 27.0518 58.141C27.3638 58.531 27.8188 58.726 28.4168 58.726C28.8024 58.726 29.1339 58.6415 29.4113 58.4725C29.6929 58.2992 29.9096 58.05 30.0613 57.725L31.6083 58.193C31.3396 58.8257 30.9236 59.3175 30.3603 59.6685C29.8013 60.0195 29.1838 60.195 28.5078 60.195ZM26.0898 56.9255V55.7425H30.9193V56.9255H26.0898ZM33.1236 60V52.98H34.6901V55.749H37.8426V52.98H39.4091V60H37.8426V57.218H34.6901V60H33.1236ZM43.1865 60.195C42.6795 60.195 42.2505 60.0997 41.8995 59.909C41.5485 59.714 41.282 59.4562 41.1 59.1355C40.9223 58.8148 40.8335 58.4617 40.8335 58.076C40.8335 57.738 40.8898 57.4347 41.0025 57.166C41.1151 56.893 41.2885 56.659 41.5225 56.464C41.7565 56.2647 42.0598 56.1022 42.4325 55.9765C42.7141 55.8855 43.0435 55.8032 43.4205 55.7295C43.8018 55.6558 44.2135 55.5887 44.6555 55.528C45.1018 55.463 45.5676 55.3937 46.053 55.32L45.494 55.6385C45.4983 55.1532 45.39 54.7957 45.169 54.566C44.948 54.3363 44.5753 54.2215 44.051 54.2215C43.7346 54.2215 43.4291 54.2952 43.1345 54.4425C42.8398 54.5898 42.634 54.8433 42.517 55.203L41.087 54.7545C41.2603 54.1608 41.5896 53.6842 42.075 53.3245C42.5646 52.9648 43.2233 52.785 44.051 52.785C44.675 52.785 45.2231 52.8868 45.6955 53.0905C46.1721 53.2942 46.5253 53.6278 46.755 54.0915C46.8806 54.3385 46.9565 54.592 46.9825 54.852C47.0085 55.1077 47.0215 55.3872 47.0215 55.6905V60H45.65V58.479L45.8775 58.726C45.5611 59.233 45.1906 59.6057 44.766 59.844C44.3456 60.078 43.8191 60.195 43.1865 60.195ZM43.4985 58.947C43.8538 58.947 44.1571 58.8842 44.4085 58.7585C44.6598 58.6328 44.8591 58.479 45.0065 58.297C45.1581 58.115 45.26 57.9438 45.312 57.7835C45.3943 57.5842 45.4398 57.3567 45.4485 57.101C45.4615 56.841 45.468 56.6308 45.468 56.4705L45.949 56.6135C45.4766 56.6872 45.0715 56.7522 44.7335 56.8085C44.3955 56.8648 44.1051 56.919 43.8625 56.971C43.6198 57.0187 43.4053 57.0728 43.219 57.1335C43.037 57.1985 42.8831 57.2743 42.7575 57.361C42.6318 57.4477 42.5343 57.5473 42.465 57.66C42.4 57.7727 42.3675 57.9048 42.3675 58.0565C42.3675 58.2298 42.4108 58.3837 42.4975 58.518C42.5841 58.648 42.7098 58.752 42.8745 58.83C43.0435 58.908 43.2515 58.947 43.4985 58.947ZM51.3033 60V52.98H57.4003V60H55.8337V54.449H52.8697V60H51.3033ZM61.1884 60.195C60.6814 60.195 60.2524 60.0997 59.9014 59.909C59.5504 59.714 59.2839 59.4562 59.1019 59.1355C58.9243 58.8148 58.8354 58.4617 58.8354 58.076C58.8354 57.738 58.8918 57.4347 59.0044 57.166C59.1171 56.893 59.2904 56.659 59.5244 56.464C59.7584 56.2647 60.0618 56.1022 60.4344 55.9765C60.7161 55.8855 61.0454 55.8032 61.4224 55.7295C61.8038 55.6558 62.2154 55.5887 62.6574 55.528C63.1038 55.463 63.5696 55.3937 64.0549 55.32L63.4959 55.6385C63.5003 55.1532 63.3919 54.7957 63.1709 54.566C62.9499 54.3363 62.5773 54.2215 62.0529 54.2215C61.7366 54.2215 61.4311 54.2952 61.1364 54.4425C60.8418 54.5898 60.6359 54.8433 60.5189 55.203L59.0889 54.7545C59.2623 54.1608 59.5916 53.6842 60.0769 53.3245C60.5666 52.9648 61.2253 52.785 62.0529 52.785C62.6769 52.785 63.2251 52.8868 63.6974 53.0905C64.1741 53.2942 64.5273 53.6278 64.7569 54.0915C64.8826 54.3385 64.9584 54.592 64.9844 54.852C65.0104 55.1077 65.0234 55.3872 65.0234 55.6905V60H63.6519V58.479L63.8794 58.726C63.5631 59.233 63.1926 59.6057 62.7679 59.844C62.3476 60.078 61.8211 60.195 61.1884 60.195ZM61.5004 58.947C61.8558 58.947 62.1591 58.8842 62.4104 58.7585C62.6618 58.6328 62.8611 58.479 63.0084 58.297C63.1601 58.115 63.2619 57.9438 63.3139 57.7835C63.3963 57.5842 63.4418 57.3567 63.4504 57.101C63.4634 56.841 63.4699 56.6308 63.4699 56.4705L63.9509 56.6135C63.4786 56.6872 63.0734 56.7522 62.7354 56.8085C62.3974 56.8648 62.1071 56.919 61.8644 56.971C61.6218 57.0187 61.4073 57.0728 61.2209 57.1335C61.0389 57.1985 60.8851 57.2743 60.7594 57.361C60.6338 57.4477 60.5363 57.5473 60.4669 57.66C60.4019 57.7727 60.3694 57.9048 60.3694 58.0565C60.3694 58.2298 60.4128 58.3837 60.4994 58.518C60.5861 58.648 60.7118 58.752 60.8764 58.83C61.0454 58.908 61.2534 58.947 61.5004 58.947ZM66.0657 60V58.687C66.3213 58.7347 66.5185 58.7303 66.6572 58.674C66.7958 58.6133 66.8998 58.5007 66.9692 58.336C67.0385 58.1713 67.0992 57.9525 67.1512 57.6795C67.2205 57.2938 67.2812 56.8497 67.3332 56.347C67.3895 55.8443 67.4372 55.307 67.4762 54.735C67.5195 54.163 67.5585 53.578 67.5932 52.98H72.7607V60H71.2007V54.449H68.9712C68.9495 54.7307 68.9235 55.047 68.8932 55.398C68.8628 55.7447 68.8303 56.0957 68.7957 56.451C68.761 56.8063 68.722 57.1443 68.6787 57.465C68.6397 57.7813 68.5985 58.0522 68.5552 58.2775C68.4555 58.7845 68.3125 59.1853 68.1262 59.48C67.9442 59.7747 67.6885 59.9632 67.3592 60.0455C67.0298 60.1322 66.5987 60.117 66.0657 60ZM74.7168 51.914V50.4775H76.2833V51.914H74.7168ZM74.7168 60V52.98H76.2833V60H74.7168ZM79.9918 60V54.371H77.6453V52.98H83.9048V54.371H81.5583V60H79.9918ZM88.5101 60.195C87.8254 60.195 87.2512 60.0325 86.7876 59.7075C86.3239 59.3825 85.9751 58.9405 85.7411 58.3815C85.5071 57.8182 85.3901 57.1877 85.3901 56.49C85.3901 55.7837 85.5071 55.151 85.7411 54.592C85.9751 54.033 86.3174 53.5932 86.7681 53.2725C87.2231 52.9475 87.7842 52.785 88.4516 52.785C89.1146 52.785 89.6887 52.9475 90.1741 53.2725C90.6637 53.5932 91.0429 54.033 91.3116 54.592C91.5802 55.1467 91.7146 55.7793 91.7146 56.49C91.7146 57.192 91.5824 57.8225 91.3181 58.3815C91.0537 58.9405 90.6811 59.3825 90.2001 59.7075C89.7191 60.0325 89.1557 60.195 88.5101 60.195ZM85.1236 63.12V52.98H86.5081V57.907H86.7031V63.12H85.1236ZM88.2696 58.791C88.6769 58.791 89.0127 58.6892 89.2771 58.4855C89.5414 58.2818 89.7364 58.0067 89.8621 57.66C89.9921 57.309 90.0571 56.919 90.0571 56.49C90.0571 56.0653 89.9921 55.6797 89.8621 55.333C89.7321 54.982 89.5306 54.7047 89.2576 54.501C88.9846 54.293 88.6379 54.189 88.2176 54.189C87.8189 54.189 87.4939 54.2865 87.2426 54.4815C86.9912 54.6722 86.8049 54.9408 86.6836 55.2875C86.5666 55.6298 86.5081 56.0307 86.5081 56.49C86.5081 56.945 86.5666 57.3458 86.6836 57.6925C86.8049 58.0392 86.9934 58.31 87.2491 58.505C87.5091 58.6957 87.8492 58.791 88.2696 58.791ZM95.1103 60.195C94.6033 60.195 94.1743 60.0997 93.8233 59.909C93.4723 59.714 93.2058 59.4562 93.0238 59.1355C92.8461 58.8148 92.7573 58.4617 92.7573 58.076C92.7573 57.738 92.8136 57.4347 92.9263 57.166C93.039 56.893 93.2123 56.659 93.4463 56.464C93.6803 56.2647 93.9836 56.1022 94.3563 55.9765C94.638 55.8855 94.9673 55.8032 95.3443 55.7295C95.7256 55.6558 96.1373 55.5887 96.5793 55.528C97.0256 55.463 97.4915 55.3937 97.9768 55.32L97.4178 55.6385C97.4221 55.1532 97.3138 54.7957 97.0928 54.566C96.8718 54.3363 96.4991 54.2215 95.9748 54.2215C95.6585 54.2215 95.353 54.2952 95.0583 54.4425C94.7636 54.5898 94.5578 54.8433 94.4408 55.203L93.0108 54.7545C93.1841 54.1608 93.5135 53.6842 93.9988 53.3245C94.4885 52.9648 95.1471 52.785 95.9748 52.785C96.5988 52.785 97.147 52.8868 97.6193 53.0905C98.096 53.2942 98.4491 53.6278 98.6788 54.0915C98.8045 54.3385 98.8803 54.592 98.9063 54.852C98.9323 55.1077 98.9453 55.3872 98.9453 55.6905V60H97.5738V58.479L97.8013 58.726C97.485 59.233 97.1145 59.6057 96.6898 59.844C96.2695 60.078 95.743 60.195 95.1103 60.195ZM95.4223 58.947C95.7776 58.947 96.081 58.8842 96.3323 58.7585C96.5836 58.6328 96.783 58.479 96.9303 58.297C97.082 58.115 97.1838 57.9438 97.2358 57.7835C97.3181 57.5842 97.3636 57.3567 97.3723 57.101C97.3853 56.841 97.3918 56.6308 97.3918 56.4705L97.8728 56.6135C97.4005 56.6872 96.9953 56.7522 96.6573 56.8085C96.3193 56.8648 96.029 56.919 95.7863 56.971C95.5436 57.0187 95.3291 57.0728 95.1428 57.1335C94.9608 57.1985 94.807 57.2743 94.6813 57.361C94.5556 57.4477 94.4581 57.5473 94.3888 57.66C94.3238 57.7727 94.2913 57.9048 94.2913 58.0565C94.2913 58.2298 94.3346 58.3837 94.4213 58.518C94.508 58.648 94.6336 58.752 94.7983 58.83C94.9673 58.908 95.1753 58.947 95.4223 58.947Z" fill="#0C3E2E"/>
</svg>
