<svg width="201" height="200" viewBox="0 0 201 200" fill="none" xmlns="http://www.w3.org/2000/svg">
<g clip-path="url(#clip0_1_171)">
<path d="M163.057 157.117C162.477 157.891 162.477 157.891 161.886 158.68C162.401 158.68 162.917 158.68 163.448 158.68C163.319 158.164 163.19 157.649 163.057 157.117Z" fill="#0C3E2E"/>
<path d="M131.417 175.086L129.073 177.039C129.023 177.322 126.387 176.765 126.339 177.039H125.557L125.167 175.867C124.247 176.072 123.412 176.332 122.53 176.673L121.651 177.039L120.479 173.914H119.698L118.136 177.039L116.964 175.867C115.401 175.867 115.401 175.867 114.522 176.258L113.839 176.649L112.276 175.086L111.104 177.039C110.323 176.258 110.323 176.258 109.591 175.941C108.761 175.867 108.761 175.867 107.882 176.429L107.198 177.039L106.417 173.914H105.636L105.001 174.891L104.464 175.867L104.073 175.086C103.292 175.086 103.292 175.086 102.462 175.867L101.729 176.649L99.3856 174.305L98.9949 176.649L97.4324 174.696L95.0887 176.649L94.6981 175.086L92.3543 177.039C92.3543 175.826 92.1436 175.339 91.5731 174.305L89.7664 176.112L88.8387 177.039L88.0574 175.086H87.2762L86.4949 176.649L84.5418 175.086L82.5887 177.039C82.1489 175.657 81.6782 174.437 81.0262 173.133L79.0731 176.649L77.5106 175.867C76.7598 176.133 76.7598 176.133 76.0457 176.6L74.7762 177.43L73.6043 173.914H72.8231L72.0418 177.43L69.6981 175.477L67.7449 177.039L66.1824 175.086L65.45 175.867C64.7151 176.738 64.7151 176.738 63.8387 176.649L63.4481 175.867C62.2762 175.867 62.2762 175.867 61.4217 176.453L60.7137 177.039L59.5418 173.914H58.7606L58.1258 174.891L57.5887 175.867L57.1981 175.086L54.4637 177.039C54.4637 176.018 54.4637 176.018 53.2918 174.305H52.5106L52.1199 176.258C51.5828 175.477 51.5828 175.477 50.9481 174.696H50.1668C49.7506 175.528 49.2717 176.01 48.6043 176.649L48.2137 175.086H47.4324L46.6512 177.039H45.8699C45.7235 175.892 45.7235 175.892 45.4793 174.696L44.6981 174.305C44.2004 175.101 43.6783 175.882 43.1356 176.649H42.3543L41.5731 175.086H40.7918L40.0106 176.649L38.0574 175.086L36.1043 177.039C35.6645 175.657 35.1938 174.437 34.5418 173.133L32.5887 176.649L31.0262 175.867C30.2755 176.133 30.2755 176.133 29.5614 176.6L28.2918 177.43L27.1199 173.914H26.3387L25.1668 177.039C24.2611 176.436 23.4065 175.947 22.4324 175.477L20.4793 177.039L19.6981 175.086H18.9168L18.1356 176.649L17.0614 176.185C15.7918 175.867 15.7918 175.867 14.8641 176.405L14.2293 177.039L13.0574 173.914H12.2762L11.6414 174.891L11.1043 175.867L10.7137 175.086L7.97932 176.649L6.80745 174.305H6.0262V177.43L4.4637 178.211C4.37953 179.249 4.30251 179.923 4.89302 180.807C5.63557 181.336 5.63557 181.336 6.78081 181.484L8.21472 181.485C9.06469 181.491 9.91435 181.495 10.7643 181.491C11.3924 181.489 12.0205 181.488 12.6486 181.49C14.3796 181.497 16.1105 181.5 17.8415 181.497C19.7349 181.494 21.6282 181.496 23.5215 181.5C27.231 181.507 30.9405 181.51 34.65 181.508C37.6982 181.506 40.7464 181.505 43.7946 181.507L45.1038 181.508L47.7382 181.51C55.9827 181.516 64.2272 181.515 72.4716 181.51C80.0373 181.506 87.603 181.509 95.1687 181.518C102.963 181.528 110.758 181.534 118.553 181.531C122.923 181.53 127.294 181.529 131.665 181.535C135.417 181.541 139.17 181.544 142.923 181.539L143.598 181.537C145.293 181.534 146.988 181.531 148.683 181.535C150.457 181.54 152.231 181.544 154.005 181.539C154.657 181.536 155.309 181.534 155.962 181.532C160.522 181.562 164.539 181.157 168.917 179.774C174.901 177.386 179.332 172.879 182.026 167.078C184.498 161.075 184.424 154.934 182.125 148.914C179.815 143.616 175.384 139.471 170.089 137.196C165.161 135.404 159.563 135.312 154.722 137.356C149.228 139.863 145.616 143.45 143.355 149.11C142.104 153.264 142.043 158.424 143.816 162.423L144.307 163.367C145.872 166.492 147.713 168.616 150.606 170.568C154.653 173.003 159.298 173.848 163.936 172.84C168.229 171.409 171.651 168.861 173.995 164.93C175.839 161.271 176.145 157.47 175.118 153.504C173.952 150.162 172.008 147.549 168.917 145.789C165.304 144.027 161.954 143.61 158.101 144.837C154.917 146.141 152.708 148.154 151.276 151.302C150.423 154.234 150.572 157.424 151.729 160.242C153.266 162.635 155.214 164.219 157.979 164.93C160.638 165.239 162.592 164.97 164.84 163.49C166.298 162.106 167.245 160.853 167.464 158.848C167.486 157.007 167.546 155.464 166.305 153.992C164.791 152.683 163.674 152.029 161.641 152.064C160.168 152.473 159.621 152.735 158.761 153.992C158.378 155.419 158.174 156.289 158.785 157.655C159.542 158.289 159.542 158.289 160.787 158.582L161.886 158.68L163.057 157.117L163.448 158.68H161.886V159.852L161.104 159.461L160.323 160.242L159.542 159.461L158.37 160.242L157.979 158.68L156.417 159.071V157.117V156.727L156.807 155.555L155.245 155.164L156.807 154.383V153.602L156.026 153.211L157.198 152.821L156.807 151.649L158.37 151.258L157.979 150.086L159.542 150.477L160.323 148.914L160.811 149.5C161.495 150.086 161.495 150.086 163.057 150.086L164.229 149.305L164.62 150.086L165.792 150.477V149.696H166.573V150.867H168.526L167.354 152.039L168.917 152.821L168.526 153.211L170.089 154.383L169.307 154.774V155.555L170.479 155.946L169.307 157.508L171.261 157.899L169.698 159.071L170.479 160.242L168.917 161.024L170.089 162.196L168.136 162.586L168.917 163.758H166.964L167.354 165.711L166.573 166.102L165.792 167.274L164.62 166.883L164.229 168.446H163.448L162.667 166.883L161.886 168.446L161.104 167.274L160.323 168.446C159.882 167.469 159.741 166.983 158.761 166.492L157.979 168.055L157.198 166.102L156.026 167.274L155.636 166.102L154.464 166.492L154.073 164.539L152.511 166.102L152.12 164.539L150.167 164.93C150.167 163.923 150.167 163.923 148.995 161.805L148.214 161.414V159.852L148.995 158.68L148.214 157.899L148.995 157.508V156.727L147.823 155.946L149.386 154.774L147.432 153.602L148.995 152.821L147.432 150.867H148.604V150.086L149.776 149.696L148.995 148.133H150.557L150.167 145.789L152.511 146.571L152.12 144.617L153.292 145.399L153.682 143.836L154.854 144.227L155.636 142.664L156.807 143.055L157.198 141.883C157.638 142.323 157.638 142.323 159.151 143.055L159.542 141.492L159.932 142.274L161.104 142.664L161.495 141.102L162.276 142.274L162.667 141.102H163.448V142.274L164.229 143.055L165.401 141.102L166.182 142.274L167.354 141.492L168.526 142.664L169.698 142.274V143.446H170.87L171.261 145.399L173.214 144.227L174.386 147.742H175.557H176.339C175.557 148.524 175.557 148.524 175.557 149.696L177.901 150.086V150.867L176.339 151.649L178.292 152.039L176.729 153.992L178.682 154.383L176.729 156.727L179.073 157.117C178.097 157.655 178.097 157.655 177.12 158.289V159.071L179.464 159.852C179.125 160.738 179.125 160.738 178.072 161.073L177.12 161.414L178.682 162.977L176.729 163.758L177.511 166.492H175.948L176.339 168.055H173.604V171.18L171.261 170.789V173.133L168.917 172.352V175.086C168.038 174.647 168.038 174.647 166.182 173.914V176.258L162.276 174.696L161.886 177.039L158.761 175.477L157.979 176.649H157.198C156.299 175.709 155.764 175.31 154.464 175.086L153.292 177.039L151.339 175.086C150.416 176.073 149.907 176.605 148.604 177.039L147.432 175.477L146.261 177.039C145.37 176.644 145.37 176.644 144.454 175.648L143.526 174.696L142.354 176.649L141.182 175.086L139.62 176.649C139.17 175.685 138.82 175.068 138.057 174.305L136.104 176.649L134.151 175.086L133.37 177.039L131.417 175.086Z" fill="#0C3E2E"/>
<path d="M118.122 83.8096C121.736 86.7292 124.624 90.7732 127.488 94.3992C128.451 95.5968 129.444 96.7676 130.44 97.9378C131.962 99.7245 133.443 101.536 134.9 103.376C135.843 104.543 136.814 105.684 137.789 106.824C139.275 108.565 140.709 110.337 142.11 112.147C143.654 114.138 145.261 116.061 146.92 117.957C153.03 124.944 153.03 124.944 152.988 128.213C152.806 129.849 151.792 131.089 150.557 132.117C149.123 132.596 147.746 132.792 146.261 132.508C144.429 131.483 143.146 130.192 141.842 128.577L141.282 127.9C140.725 127.225 140.172 126.546 139.62 125.867L138.685 124.731C137.593 123.402 136.509 122.068 135.425 120.734L135.256 120.527C133.662 118.571 132.05 116.632 130.416 114.71C128.905 112.934 127.434 111.132 125.986 109.304C124.83 107.872 123.635 106.474 122.438 105.076C121.12 103.529 119.883 101.938 118.697 100.286L118.136 99.6956H116.964L116.762 98.3971C116.667 97.8289 116.571 97.2607 116.475 96.6926L116.346 95.8389C116.027 93.9998 115.587 92.8551 114.229 91.4924C112.368 90.3975 110.912 90.1323 108.819 90.461C107.085 90.978 106.025 92.0098 105.098 93.5676C104.358 96.7519 105.146 100.065 105.636 103.236C105.784 104.2 105.93 105.165 106.075 106.13L106.273 107.415C106.683 111.027 106.683 111.027 105.703 112.453L104.757 113.392C103.432 114.758 102.322 116.039 101.339 117.664L102.196 117.893C104.144 118.418 106.075 118.949 107.979 119.617L108.095 120.56L108.272 121.815L108.437 123.051C109.251 126.208 111.532 127.715 114.034 129.554L115.13 130.374C115.885 130.939 116.641 131.501 117.399 132.063C118.477 132.862 119.552 133.666 120.626 134.472L121.637 135.231C122.294 135.724 122.95 136.217 123.606 136.711C125.029 137.781 126.454 138.845 127.901 139.883L128.61 140.401C129.213 140.842 129.82 141.276 130.428 141.711C132.669 143.872 133.555 147.198 134.585 150.072L135.025 151.295C135.329 152.144 135.632 152.993 135.934 153.843C136.396 155.137 136.866 156.427 137.336 157.718C137.632 158.547 137.927 159.375 138.222 160.204L138.648 161.362C139.63 164.168 140.285 167.024 139.058 169.886C138.052 171.903 136.589 173.02 134.542 173.914L126.827 172.523C124.326 170.925 123.505 167.008 122.555 164.368C122.367 163.87 122.179 163.373 121.99 162.875C120.891 159.936 119.926 156.993 119.09 153.968C116.921 144.294 116.921 144.294 111.115 136.849C109.013 135.941 106.83 135.469 104.585 135.068C100.448 134.298 96.5321 132.734 92.5864 131.308C91.2522 130.831 89.9134 130.37 88.5719 129.914C87.734 129.625 86.8963 129.335 86.0585 129.046L84.8995 128.658C81.9318 127.615 79.2468 126.339 77.7059 123.475C76.1173 119.227 77.2396 114.602 79.0511 110.6C84.3516 99.6344 94.047 86.4172 106.026 82.1174C110.026 80.826 114.685 81.4798 118.122 83.8096Z" fill="black"/>
<path d="M4.76147 192.258C70.3748 192.258 135.988 192.258 203.59 192.258C204.371 196.946 204.371 196.946 204.371 200.071C138.371 200.071 72.3708 200.071 4.37085 200.071C4.37085 195.774 4.37085 195.774 4.76147 192.258Z" fill="black"/>
<path d="M83.7035 131.701C85.1397 132.078 86.5701 132.474 88.0004 132.873C88.2765 132.949 88.5526 133.025 88.8371 133.103C102.668 136.926 102.668 136.926 104.925 140.362C105.851 142.363 106.199 144.361 106.36 146.545C106.46 147.266 106.46 147.266 106.563 148.002C106.741 150.391 106.304 152.475 104.797 154.357C102.148 156.515 99.1181 158.171 96.1546 159.851C95.4804 160.236 94.8061 160.622 94.132 161.008C93.6734 161.27 93.2147 161.532 92.7559 161.794C90.4952 163.085 88.246 164.396 85.9984 165.71C85.4307 166.041 85.4307 166.041 84.8516 166.379C82.8269 167.56 80.805 168.746 78.7856 169.937C78.1508 170.31 78.1508 170.31 77.5033 170.69C76.6952 171.165 75.8878 171.642 75.0813 172.12C69.2882 175.52 69.2882 175.52 65.7347 175.061C63.2812 174.284 61.9209 173.059 60.3636 171.057C59.4147 168.969 59.2578 166.909 59.8265 164.685C61.2716 161.089 65.0979 159.153 68.347 157.409C69.1434 156.97 69.9394 156.531 70.735 156.091C71.1372 155.869 71.5393 155.648 71.9536 155.419C73.8555 154.358 75.7283 153.249 77.6 152.136C77.9513 151.927 78.3027 151.718 78.6647 151.503C79.3557 151.093 80.0465 150.682 80.7372 150.271C82.3578 149.309 83.9827 148.354 85.6078 147.399C85.8915 147.233 86.1751 147.066 86.4674 146.894C87.1086 146.517 87.7498 146.14 88.391 145.764C88.151 143.969 87.6751 142.414 87.0223 140.727C86.9274 140.48 86.8326 140.232 86.7349 139.978C86.4345 139.196 86.1312 138.415 85.8275 137.634C85.523 136.846 85.2191 136.058 84.9159 135.269C84.6424 134.558 84.3671 133.849 84.0917 133.139C83.7035 132.092 83.7035 132.092 83.7035 131.701Z" fill="black"/>
<path d="M143.037 64.7755C145.071 66.4423 146.476 68.0335 147.301 70.551C148.042 72.6195 149.172 73.3748 150.993 74.5198C153.706 76.2829 156.273 78.4346 157.53 81.4641C157.677 82.758 157.677 82.758 157.53 83.8078C156.523 84.8151 156.078 84.7283 154.674 84.76C147.671 84.6343 141.188 79.7537 136.507 74.9211C136.279 74.6794 136.279 74.6794 136.046 74.4328C138.029 78.4893 141.384 81.6177 145.03 84.1984C143.924 86.6546 142.011 88.0031 139.562 89.0324C135.548 90.3373 131.511 90.1378 127.709 88.3183C124.17 86.2575 122.011 83.5545 120.86 79.633C119.977 75.5755 120.434 72.0994 122.456 68.4666C124.686 65.0689 127.598 63.0431 131.569 62.0839C135.803 61.4185 139.554 62.2705 143.037 64.7755ZM135.265 73.2609C135.655 74.0422 135.655 74.0422 135.655 74.0422L135.265 73.2609Z" fill="black"/>
<path d="M113.538 87.9449C115.947 90.24 116.095 93.8282 116.533 96.969C116.601 97.4359 116.668 97.9027 116.738 98.3838C116.88 99.3665 117.02 100.349 117.158 101.333C117.37 102.836 117.588 104.338 117.806 105.84C117.944 106.798 118.081 107.755 118.217 108.712C118.282 109.16 118.347 109.608 118.413 110.07C118.472 110.49 118.531 110.91 118.592 111.342C118.644 111.709 118.696 112.076 118.749 112.454C118.867 113.602 118.878 114.722 118.86 115.875C119.081 115.976 119.302 116.078 119.53 116.183C120.506 116.7 121.329 117.301 122.205 117.976C122.546 118.237 122.887 118.499 123.238 118.768C123.598 119.046 123.958 119.324 124.329 119.61C125.073 120.181 125.818 120.752 126.562 121.324C126.92 121.598 127.277 121.873 127.646 122.156C128.813 123.049 129.987 123.932 131.165 124.81C132.807 126.039 134.443 127.275 136.072 128.521C136.286 128.684 136.501 128.847 136.722 129.015C139.427 131.091 139.427 131.091 139.954 132.671C140.105 134.519 140.142 135.428 139.294 137.09C137.981 138.617 137.116 139.238 135.095 139.459C132.387 139.174 130.481 137.547 128.406 135.919C127.818 135.463 127.23 135.008 126.642 134.553C126.331 134.312 126.021 134.071 125.701 133.822C123.973 132.485 122.234 131.163 120.496 129.839C120.147 129.574 119.799 129.308 119.44 129.034C117.227 127.347 115.003 125.678 112.756 124.037C110.29 122.069 109.143 120.577 108.683 117.467C108.612 117 108.542 116.533 108.47 116.052C108.36 115.295 108.36 115.295 108.249 114.523C108.171 113.995 108.094 113.467 108.016 112.94C107.853 111.832 107.692 110.724 107.533 109.616C107.331 108.211 107.123 106.807 106.913 105.404C106.751 104.312 106.592 103.22 106.435 102.128C106.324 101.363 106.209 100.598 106.095 99.8342C104.865 91.1515 104.865 91.1515 106.321 88.9923C108.358 86.877 110.926 86.7842 113.538 87.9449Z" fill="black"/>
<path d="M42.3788 30.2628C44.8087 32.1733 46.02 34.6083 46.9839 37.5001C47.3053 41.8933 46.976 45.0519 44.1519 48.5352C41.5472 51.3291 38.6097 52.7124 34.7769 52.8809C31.0728 52.7896 28.1473 51.4954 25.4782 48.9411C22.7882 45.7758 22.0675 42.3285 22.3746 38.2813C23.21 34.3374 25.4609 31.6935 28.6246 29.2969C32.6872 26.6951 38.5714 27.7268 42.3788 30.2628ZM27.5259 33.9112C25.6866 36.1915 24.8736 38.2588 24.9716 41.1896C25.3426 43.8858 26.7026 46.1687 28.6246 48.0469C31.4605 49.7818 34.1355 50.5257 37.4258 49.7742C40.5222 48.723 42.5267 46.6875 44.0542 43.8233C44.5703 40.5331 44.6859 37.5589 42.6871 34.7657C40.9297 32.7309 38.858 30.9963 36.1029 30.7664C32.3298 30.6823 30.1276 31.1256 27.5259 33.9112Z" fill="#FFBA00"/>
<path d="M27.5259 33.9112C25.6866 36.1915 24.8736 38.2588 24.9716 41.1896C25.3426 43.8858 26.7026 46.1687 28.6246 48.0469C31.4605 49.7818 34.1355 50.5257 37.4258 49.7742C40.5222 48.723 42.5267 46.6875 44.0542 43.8233C44.5703 40.5331 44.6859 37.5589 42.6871 34.7657C40.9297 32.7309 38.858 30.9963 36.1029 30.7664C32.3298 30.6823 30.1276 31.1256 27.5259 33.9112Z" fill="#FFBA00"/>
</g>
<defs>
<clipPath id="clip0_1_171">
<rect width="200" height="200" fill="white" transform="translate(0.5)"/>
</clipPath>
</defs>
</svg>
