<svg width="201" height="200" viewBox="0 0 201 200" fill="none" xmlns="http://www.w3.org/2000/svg">
<g clip-path="url(#clip0_1_150)">
<path d="M66.5156 105.469C68.3188 106.86 69.9968 108.396 71.6816 109.926C72.6204 110.767 73.5919 111.562 74.5722 112.354C77.2174 114.498 79.8063 116.707 82.4007 118.913C84.9234 121.056 87.4589 123.179 90.0263 125.269C91.4688 126.455 92.8911 127.663 94.314 128.873C95.6486 130.005 96.9941 131.122 98.3515 132.227C100.564 134.029 102.741 135.872 104.915 137.72C105.6 138.3 106.287 138.878 106.974 139.455C107.202 139.647 107.431 139.838 107.666 140.036C108.1 140.402 108.536 140.767 108.971 141.131C112.092 143.76 112.092 143.76 112.609 145.312C110.968 145.85 109.323 146.376 107.678 146.899C107.213 147.052 106.748 147.204 106.269 147.361C105.819 147.503 105.368 147.645 104.904 147.792C104.284 147.991 104.284 147.991 103.651 148.195C102.32 148.464 101.419 148.385 100.109 148.047C99.177 147.363 99.177 147.363 98.2783 146.484C96.9385 145.216 95.589 144.004 94.1523 142.847C92.4669 141.483 90.8136 140.088 89.1718 138.672C87.2147 136.985 85.2347 135.333 83.2285 133.705C81.9907 132.69 80.7714 131.654 79.5527 130.615C77.5931 128.947 75.5991 127.335 73.5468 125.781C73.4849 126.083 73.423 126.385 73.3591 126.697C72.6498 129.863 71.781 132.235 69.4697 134.546C68.3378 135.236 67.4367 135.425 66.125 135.547C65.7352 133.553 65.6367 131.604 65.5665 129.581C65.5377 128.873 65.5087 128.165 65.4795 127.457C65.4352 126.35 65.3925 125.244 65.3538 124.137C65.3155 123.062 65.2706 121.988 65.2247 120.914C65.2149 120.587 65.2051 120.26 65.1949 119.923C65.0737 117.269 64.5838 115.06 62.8779 112.939C61.1845 111.601 59.8289 111.236 57.7021 111.401C56.224 111.622 55.1745 111.897 54.0156 112.891C51.5739 116.35 52.0487 120.051 52.2669 124.12C52.293 124.642 52.3189 125.165 52.3446 125.687C52.4127 127.06 52.4841 128.432 52.5561 129.804C52.6135 130.907 52.6686 132.01 52.7236 133.113C52.7905 134.453 52.8583 135.792 52.9261 137.132C52.9392 137.392 52.9523 137.652 52.9658 137.92C53.0881 140.336 53.2124 142.751 53.3888 145.165C53.4219 145.632 53.4219 145.632 53.4556 146.108C53.5125 146.885 53.575 147.661 53.6381 148.438C53.6249 149.611 53.4724 150.197 52.8437 151.172C53.1886 151.082 53.5334 150.993 53.8887 150.9C55.4898 150.754 55.9361 151.066 57.2169 152C57.5906 152.268 57.9642 152.535 58.3493 152.81C58.9353 153.244 58.9353 153.244 59.5332 153.687C60.3468 154.271 61.1606 154.856 61.9746 155.44C62.3598 155.72 62.745 155.999 63.1419 156.288C64.2672 157.1 65.4052 157.879 66.5644 158.643C66.9018 158.866 67.2391 159.09 67.5867 159.32C68.3395 159.815 69.0927 160.309 69.847 160.801C70.9841 161.544 72.119 162.291 73.2539 163.037C73.627 163.279 74.0002 163.522 74.3847 163.771C74.7306 163.999 75.0765 164.227 75.4328 164.462C75.7466 164.667 76.0605 164.873 76.3838 165.084C76.6078 165.262 76.8317 165.441 77.0625 165.625C77.0625 165.883 77.0625 166.141 77.0625 166.406C76.2418 166.8 75.4196 167.19 74.5966 167.578C74.1389 167.796 73.6812 168.013 73.2096 168.237C71.9843 168.75 71.9843 168.75 70.8125 168.75C71.0541 169.051 71.2958 169.351 71.5449 169.661C72.589 171.239 73.225 172.69 73.1562 174.609C72.0087 177.907 69.8014 180.829 67.8616 183.71C66.8865 185.169 65.9801 186.663 65.0858 188.173C64.939 188.42 64.7921 188.667 64.6408 188.922C64.3496 189.413 64.0585 189.904 63.7676 190.395C58.6344 199.055 58.6344 199.055 55.5781 200C52.57 200.311 50.1837 200.352 47.7656 198.437C45.9237 196.635 45.0197 194.92 44.8359 192.358C44.9762 187.996 48.3257 183.877 50.5488 180.273C50.8412 179.796 51.1333 179.319 51.4253 178.842C51.8655 178.122 52.3058 177.402 52.7468 176.683C54.1034 174.47 55.4415 172.247 56.7744 170.02C56.9721 169.689 57.1698 169.359 57.3735 169.019C57.8169 168.279 58.2601 167.538 58.7031 166.797C58.2918 166.927 57.8806 167.057 57.4569 167.191C55.9092 167.679 54.3586 168.157 52.807 168.633C52.1399 168.839 51.4736 169.047 50.8081 169.258C43.6894 171.512 38.3287 171.738 31.4814 168.286C27.335 165.943 23.3028 162.471 21.7768 157.811C21.1615 155.191 21.5921 152.777 22.7656 150.391C24.5524 147.632 26.9175 145.475 29.3467 143.3C36.69 136.708 41.7843 129.402 44.43 119.83C44.5299 119.471 44.6298 119.111 44.7327 118.74C44.9261 118.035 45.1147 117.328 45.2977 116.62C46.547 111.993 48.9919 108.17 53.129 105.583C57.3311 103.429 62.3652 102.849 66.5156 105.469Z" fill="black"/>
<path d="M95.7149 79.7363C98.0451 81.681 100.235 84.2206 100.988 87.207C101.612 89.1783 103.357 89.7679 105.082 90.686C108.58 92.6583 112.56 95.8036 114.172 99.6094C114.343 101.001 114.343 101.001 114.172 102.344C113.09 103.392 112.318 103.505 110.827 103.662C102.885 103.278 94.4891 97.9542 89.2757 92.2241C88.8373 91.7019 88.4158 91.1655 88.0001 90.625C89.801 95.5711 94.6779 99.8417 98.9376 102.734C97.4495 106.075 94.4401 108.085 91.1251 109.375C86.5933 110.9 81.374 110.704 77.0626 108.594C75.9169 107.908 74.9297 107.141 73.9376 106.25C73.5833 105.949 73.5833 105.949 73.2219 105.643C69.9618 102.674 68.3419 98.8594 67.9805 94.5343C67.7815 89.3473 69.2833 85.1091 72.7657 81.25C79.2067 75.1173 88.4657 74.5813 95.7149 79.7363ZM87.2188 89.4531C87.6095 90.2344 87.6095 90.2344 87.6095 90.2344L87.2188 89.4531Z" fill="black"/>
<path d="M166.906 150.391C168.151 153.399 168.302 156.134 168.078 159.375C167.949 159.633 167.82 159.891 167.687 160.156C170.652 160.156 173.617 160.156 176.672 160.156C176.698 164.146 176.72 168.136 176.733 172.126C176.739 173.978 176.747 175.831 176.76 177.684C176.773 179.472 176.78 181.26 176.783 183.048C176.785 183.73 176.789 184.412 176.796 185.094C176.804 186.05 176.805 187.005 176.805 187.961C176.809 188.243 176.813 188.524 176.818 188.814C176.807 190.526 176.552 191.608 175.5 192.969C174.576 193.431 174 193.416 172.969 193.429C172.426 193.436 172.426 193.436 171.871 193.444C171.478 193.447 171.086 193.449 170.681 193.452C170.278 193.456 169.876 193.459 169.461 193.462C168.608 193.467 167.755 193.472 166.902 193.475C165.596 193.481 164.29 193.499 162.985 193.516C162.157 193.52 161.329 193.523 160.501 193.526C160.109 193.533 159.718 193.539 159.315 193.546C158.951 193.545 158.586 193.544 158.21 193.543C157.889 193.545 157.569 193.548 157.239 193.55C155.969 193.275 155.543 192.858 154.797 191.797C154.651 190.716 154.599 189.794 154.619 188.715C154.619 188.406 154.619 188.097 154.619 187.779C154.62 186.76 154.632 185.742 154.644 184.723C154.647 184.016 154.649 183.309 154.651 182.601C154.657 180.742 154.672 178.882 154.69 177.022C154.705 175.124 154.713 173.226 154.72 171.327C154.737 167.603 154.765 163.88 154.797 160.156C158.148 160.156 161.5 160.156 164.953 160.156C165.08 155.6 165.08 155.6 164.172 151.172C165.206 150.601 165.693 150.391 166.906 150.391Z" fill="#BB8A52"/>
<path d="M60.2655 112.5C62.0268 113.381 62.9236 114.26 63.7812 116.016C63.9183 117.247 63.9183 117.247 63.9089 118.648C63.9096 119.181 63.9106 119.713 63.9117 120.246C63.9104 120.526 63.9092 120.806 63.9079 121.095C63.9078 122.598 63.9477 124.1 63.9818 125.602C64.0242 127.506 64.0548 129.408 64.0332 131.313C63.7497 138.289 63.7497 138.289 66.2562 144.527C68.4405 146.48 70.8776 147.785 73.5216 149.012C75.4645 149.982 77.1727 151.256 78.9179 152.539C79.5533 152.989 80.1895 153.438 80.8268 153.885C81.119 154.09 81.4113 154.296 81.7123 154.508C82.8286 155.285 83.9592 156.038 85.0947 156.787C86.6037 157.788 88.1045 158.799 89.5868 159.839C90.1012 160.198 90.1012 160.198 90.626 160.564C91.8637 161.627 92.5511 162.624 92.8843 164.23C92.9395 166.536 92.5703 167.744 90.9708 169.423C89.6789 170.451 88.2181 170.494 86.6318 170.471C84.7597 170.167 83.3798 169.037 81.872 167.944C81.5185 167.698 81.165 167.452 80.8007 167.199C80.0552 166.68 79.3119 166.158 78.5708 165.632C77.141 164.624 75.6942 163.642 74.2457 162.66C73.1745 161.934 72.1061 161.205 71.0383 160.474C69.5469 159.453 68.0535 158.436 66.5583 157.422C55.0945 149.64 55.0945 149.64 54.5794 147.559C54.3921 146.397 54.3106 145.266 54.2543 144.09C54.2308 143.615 54.2074 143.141 54.1832 142.651C54.1596 142.14 54.136 141.629 54.1117 141.103C54.0861 140.567 54.0603 140.031 54.0345 139.495C53.9807 138.371 53.928 137.247 53.876 136.123C53.8101 134.698 53.7417 133.274 53.6724 131.849C53.6189 130.741 53.5666 129.632 53.5146 128.524C53.4781 127.748 53.4405 126.972 53.4029 126.197C53.3371 124.756 53.2823 123.316 53.2343 121.875C53.2158 121.381 53.1973 120.887 53.1782 120.377C53.1676 119.897 53.1569 119.417 53.1459 118.922C53.1288 118.28 53.1288 118.28 53.1113 117.626C53.3074 115.681 53.9921 114.437 55.4316 113.135C57.1172 112.323 58.4272 112.174 60.2655 112.5Z" fill="black"/>
<path d="M117.593 145.891C117.876 145.889 118.16 145.887 118.452 145.885C120.813 145.947 122.525 146.61 124.499 147.876C125.505 149.445 125.454 150.933 125.109 152.734C123.139 157.098 119.167 159.843 115.124 162.085C114.291 162.557 113.459 163.029 112.626 163.501C112.224 163.728 111.821 163.955 111.406 164.189C110.392 164.771 109.396 165.371 108.406 165.991C108.138 166.158 107.87 166.326 107.594 166.498C107.111 166.802 106.629 167.11 106.151 167.422C105.292 167.957 104.626 168.353 103.601 168.384C102.447 167.751 101.648 166.823 100.793 165.845C100.614 165.648 100.434 165.451 100.25 165.249C98.9375 163.778 98.9375 163.778 98.9375 162.891C98.6646 163.003 98.3917 163.116 98.1105 163.232C97.755 163.377 97.3995 163.522 97.0332 163.672C96.6797 163.817 96.3262 163.962 95.962 164.111C95.0312 164.453 95.0312 164.453 94.25 164.453C93.0781 161.865 93.0781 161.865 93.0781 160.547C94.2383 160.031 95.3984 159.516 96.5938 158.984C96.4648 156.535 96.3359 154.086 96.2031 151.562C99.2307 150.427 102.265 149.416 105.353 148.466C105.985 148.27 106.617 148.07 107.247 147.865C110.697 146.749 113.948 145.909 117.593 145.891Z" fill="black"/>
<path d="M69.25 82.4219C69.5591 83.3176 69.7055 83.8049 69.3782 84.7107C69.2392 84.9544 69.1002 85.1981 68.957 85.4492C68.3602 86.534 67.9355 87.5336 67.5898 88.7207C67.1273 89.9938 66.6311 90.5348 65.5131 91.2857C63.5881 92.6671 62.0228 94.3148 60.3877 96.0205C56.1862 100.315 52.2312 103.926 46.0017 104.306C42.8194 104.285 39.9525 103.526 37.4888 101.463C35.9055 99.8288 34.875 98.3978 34.875 96.0938C35.8715 96.2783 36.4564 96.4979 37.292 97.0947C39.1542 98.0465 40.8533 97.9825 42.837 97.3679C46.7791 95.625 49.8768 92.2343 52.624 88.9984C57.1089 83.7287 62.3044 81.3998 69.25 82.4219Z" fill="black"/>
<path d="M132.171 175.038C132.922 175.391 132.922 175.391 133.331 176.146C134.293 179.572 134.49 182.552 133.312 185.938C133.715 185.978 134.118 186.018 134.533 186.06C136.047 186.328 136.047 186.328 137.097 186.865C138.674 187.639 140.233 187.972 141.944 188.342C143.145 188.691 144.025 189.103 145.031 189.844C145.349 191.089 145.349 191.089 145.422 192.188C143.608 192.881 141.903 193.142 139.978 193.237C139.687 193.253 139.396 193.27 139.096 193.286C136.723 193.395 134.407 193.243 132.04 193.04C130.5 192.965 129.009 193.055 127.478 193.188C124.345 193.432 120.177 193.627 117.297 192.188C117.321 191.113 117.321 191.113 117.688 189.844C119.605 188.352 121.647 187.925 123.989 187.393C124.941 187.152 125.742 186.869 126.623 186.45C127.915 185.908 128.802 185.836 130.188 185.938C131.223 182.313 131.023 179.422 130.188 175.781C131.359 175 131.359 175 132.171 175.038Z" fill="#BB8A52"/>
<path d="M118.859 165.234C122.617 165.018 126.254 165.672 129.188 168.149C130.384 169.329 130.906 170.204 131.115 171.875C130.913 173.49 130.406 174.504 129.138 175.537C127.399 176.007 125.917 175.752 124.308 175.032C121.613 173.331 120.378 170.456 119.25 167.578C118.98 166.235 118.98 166.235 118.859 165.234Z" fill="#0C3E2E"/>
<path d="M179.407 142.187C178.455 146.111 176.98 149.617 173.526 151.929C172.446 152.519 171.658 152.761 170.422 152.734C168.892 152.224 168.24 151.797 167.322 150.464C166.833 148.999 166.81 148.337 167.297 146.875C168.99 144.31 171.168 143.219 174.109 142.48C175.891 142.126 177.594 142.13 179.407 142.187Z" fill="#0C3E2E"/>
<path d="M152.844 140.625C156.397 140.42 160.224 140.99 163 143.359C164.294 144.597 165.075 145.494 165.173 147.29C164.933 148.969 164.593 149.614 163.391 150.781C162.13 151.412 161.279 151.328 159.875 151.172C156.753 150.058 155.565 147.662 154.201 144.854C153.557 143.456 153.059 142.162 152.844 140.625Z" fill="#0C3E2E"/>
<path d="M145.032 166.797C144.283 171.085 142.701 173.945 139.172 176.562C137.922 177.188 136.623 177.148 135.266 176.953C134.168 176.252 133.505 175.774 132.922 174.609C132.702 173.231 132.684 172.277 133.409 171.056C135.28 168.744 137.334 167.753 140.124 166.895C141.758 166.735 143.392 166.768 145.032 166.797Z" fill="#0C3E2E"/>
<path d="M25.6943 15.6251C27.0615 16.3575 27.0615 16.3575 28.0381 17.1876C28.0381 17.4454 28.0381 17.7032 28.0381 17.9689C27.7118 17.9772 27.7118 17.9772 27.3789 17.9856C24.0501 18.1937 22.057 19.4867 19.8594 21.9483C19.2298 22.6983 18.7101 23.3437 18.2725 24.2189C18.0504 24.1433 17.8283 24.0678 17.5995 23.99C13.3727 22.5646 10.4057 21.6513 6.16309 23.4376C6.2385 21.8162 6.45344 21.2013 7.5791 19.9952C8.79691 18.9557 10.0655 18.8642 11.6318 18.7501C13.0952 18.9683 13.0952 18.9683 14.5371 19.3116C15.2615 19.4801 15.2615 19.4801 16.0004 19.6519C16.3635 19.741 16.7265 19.8302 17.1006 19.922C17.3745 19.5675 17.6484 19.213 17.9307 18.8478C19.9863 16.3775 22.4642 15.1689 25.6943 15.6251Z" fill="#FFBA00"/>
<path d="M51.4756 0.000154972C52.3952 0.567287 52.7831 1.06281 53.4287 1.95328C53.1739 1.99155 52.9191 2.02982 52.6566 2.06925C49.0233 2.69087 46.8774 4.32866 44.4443 7.0314C44.1865 7.41812 43.9287 7.80484 43.6631 8.20328C42.4032 8.00006 41.2853 7.65396 40.0986 7.2023C37.5218 6.32903 34.9913 6.19584 32.457 7.22672C32.1589 7.42008 31.8608 7.61344 31.5537 7.81265C31.6619 6.26185 31.8533 5.57676 32.8721 4.37027C34.302 3.17868 35.4176 3.01989 37.2544 3.0336C39.0543 3.20891 40.7688 3.76512 42.4912 4.29703C42.6659 4.08504 42.8407 3.87305 43.0207 3.65463C45.541 0.672122 47.4232 -0.680304 51.4756 0.000154972Z" fill="#FFBA00"/>
<path d="M47.5693 25.0001C48.5267 25.5584 49.1274 26.1479 49.9131 26.9532C49.9131 27.0821 49.9131 27.211 49.9131 27.3439C49.4055 27.36 48.8979 27.3761 48.375 27.3927C45.6976 27.7037 43.8178 29.0199 42.0533 31.0151C41.3916 31.8592 40.7572 32.7117 40.1475 33.5939C39.9254 33.5183 39.7033 33.4428 39.4745 33.365C35.2477 31.9396 32.2807 31.0263 28.0381 32.8126C28.1091 31.2858 28.3566 30.561 29.3076 29.3458C31.1917 27.9305 33.6261 28.3022 35.8506 28.5157C36.9369 28.7084 37.9205 28.966 38.9756 29.297C39.177 29.015 39.3784 28.733 39.5859 28.4425C41.7054 25.997 44.2101 24.4118 47.5693 25.0001Z" fill="#FFBA00"/>
<path d="M81.1885 145.776C83.1408 147.24 84.3107 148.773 84.875 151.172C84.9321 152.224 84.9114 153.242 84.875 154.297C82.9959 154.297 82.1249 153.624 80.6514 152.588C80.1317 152.231 79.6119 151.874 79.0919 151.517C78.8242 151.332 78.5564 151.146 78.2805 150.956C77.4495 150.388 76.6099 149.836 75.7655 149.289C75.496 149.113 75.2265 148.938 74.9489 148.757C74.4271 148.418 73.9041 148.08 73.3801 147.744C72.7709 147.344 72.1801 146.917 71.5938 146.484C71.5938 146.227 71.5938 145.969 71.5938 145.703C74.5888 144.589 78.341 144.081 81.1885 145.776Z" fill="black"/>
<path d="M168.078 132.812C169.796 134.218 170.05 136.157 170.324 138.257C170.466 139.998 170.356 141.343 169.641 142.969C168.79 143.969 168.236 144.479 166.906 144.606C165.523 144.522 164.78 144.345 163.757 143.384C163.107 141.26 163.266 139.311 164.265 137.315C165.359 135.622 166.591 134.169 168.078 132.812Z" fill="#0C3E2E"/>
<path d="M134.875 158.203C136.091 161.07 136.709 164.169 135.804 167.226C135.461 167.871 135.461 167.871 134.484 168.75C132.928 169.152 131.769 168.986 130.383 168.188C129.487 166.658 129.437 165.399 129.797 163.672C130.761 161.548 132.284 158.203 134.875 158.203Z" fill="#0C3E2E"/>
<path d="M79.7969 167.578C80.5939 168.074 81.379 168.592 82.1406 169.141C81.75 170.313 81.75 170.313 81.0726 170.732C80.7851 170.857 80.4975 170.982 80.2012 171.111C79.8888 171.248 79.5763 171.385 79.2544 171.526C78.7616 171.735 78.7616 171.735 78.2588 171.948C77.9317 172.092 77.6047 172.236 77.2677 172.384C74.838 173.438 74.838 173.438 73.9375 173.438C72.7656 170.85 72.7656 170.85 72.7656 169.531C73.568 169.126 74.3745 168.729 75.1826 168.335C75.6313 168.113 76.0799 167.891 76.5422 167.662C77.9127 167.162 78.4462 167.097 79.7969 167.578Z" fill="black"/>
</g>
<defs>
<clipPath id="clip0_1_150">
<rect width="200" height="200" fill="white" transform="translate(0.5)"/>
</clipPath>
</defs>
</svg>
