<svg width="200" height="200" viewBox="0 0 200 200" fill="none" xmlns="http://www.w3.org/2000/svg">
<g clip-path="url(#clip0_1_180)">
<path d="M44.9216 48.828C46.1641 49.8008 47.3218 50.8377 48.4372 51.953C48.4003 52.5 48.3381 53.0453 48.2663 53.5888C47.8032 57.9633 47.3873 62.3597 50.2271 66.0338C51.1012 67.2379 51.2137 68.4756 51.1716 69.9218C50.559 73.2022 49.2815 75.7976 46.4841 77.7343C45.1273 78.1865 43.9994 78.1517 42.5778 78.1249C42.5466 75.4148 42.5793 72.7189 42.7182 70.0118C42.7433 69.4907 42.7682 68.9696 42.793 68.4485C42.8309 67.6546 42.8713 66.8613 42.9194 66.0679C43.1094 62.871 43.2413 60.5144 41.406 57.8124C39.4999 55.9993 37.903 55.7175 35.3528 55.7509C33.8903 55.9129 33.1117 56.444 32.031 57.4218C30.5542 59.3774 30.0424 60.8045 29.9259 63.2241C29.8908 63.9309 29.8908 63.9309 29.8549 64.6519C29.8313 65.1634 29.8077 65.6748 29.7833 66.2017C29.7577 66.7359 29.732 67.27 29.7062 67.8042C29.6523 68.9278 29.5996 70.0515 29.5477 71.1753C29.495 72.3156 29.4408 73.4558 29.3852 74.5959C29.207 78.2456 29.0469 81.8954 28.906 85.5468C28.8898 85.9276 28.8736 86.3085 28.8569 86.7009C28.8198 87.6295 28.7936 88.5575 28.7732 89.4866C28.7536 90.1923 28.7536 90.1923 28.7336 90.9123C28.8989 92.1351 29.0913 92.5942 29.7199 93.6013C30.4685 94.9218 30.4685 94.9218 30.4187 95.9627C30.0835 96.8596 29.7337 97.7196 29.3118 98.5793C29.0837 99.051 29.0837 99.051 28.851 99.5322C28.6919 99.8558 28.5328 100.179 28.3688 100.513C26.2775 104.322 26.2775 104.322 25.4041 108.459C25.9121 109.693 26.6327 110.522 27.5144 111.523C27.8748 111.941 28.2343 112.359 28.5931 112.778C28.7766 112.991 28.9601 113.204 29.1491 113.424C30.1476 114.608 31.0778 115.845 32.0162 117.077C33.2193 118.655 34.4356 120.222 35.6581 121.785C42.461 130.492 42.8745 134.992 41.5936 145.879C41.4912 146.764 41.3889 147.649 41.2868 148.535C41.0729 150.383 40.857 152.23 40.6395 154.077C40.3619 156.437 40.0902 158.797 39.8201 161.158C39.6105 162.983 39.3975 164.809 39.1836 166.634C39.0821 167.504 38.9817 168.374 38.8823 169.244C38.7429 170.462 38.5988 171.679 38.4537 172.897C38.414 173.251 38.3744 173.605 38.3336 173.97C37.6368 179.683 37.6368 179.683 35.9753 181.811C35.5818 182.114 35.5818 182.114 35.1804 182.422C34.7884 182.736 34.7884 182.736 34.3884 183.057C32.0842 184.613 30.0886 184.647 27.3435 184.375C24.8264 183.752 23.645 182.273 22.3157 180.125C20.8119 177.3 21.5035 173.933 21.8847 170.877C21.9485 170.344 21.9485 170.344 22.0136 169.801C22.1054 169.037 22.1982 168.273 22.2918 167.509C22.4398 166.299 22.5851 165.089 22.7296 163.878C23.1406 160.439 23.5567 157.001 23.9746 153.562C24.2306 151.454 24.4835 149.345 24.7344 147.236C24.8305 146.434 24.9278 145.632 25.0265 144.831C25.1643 143.712 25.298 142.592 25.4309 141.471C25.4724 141.142 25.514 140.813 25.5569 140.473C25.7863 138.495 25.9968 136.573 24.9418 134.788C24.756 134.57 24.5701 134.353 24.3787 134.129C24.171 133.881 23.9633 133.633 23.7493 133.377C23.5255 133.118 23.3016 132.859 23.071 132.593C22.6025 132.034 22.1346 131.475 21.6672 130.916C21.4356 130.641 21.2039 130.366 20.9653 130.082C20.0747 129.011 19.2279 127.914 18.3835 126.807C18.0733 126.4 17.7631 125.994 17.4436 125.575C17.2799 125.361 17.1163 125.146 16.9476 124.925C15.8708 123.521 14.783 122.124 13.696 120.727C13.4622 120.427 13.2285 120.127 12.9876 119.817C11.5675 117.993 10.1438 116.173 8.71552 114.355C8.54454 114.138 8.37356 113.92 8.19739 113.695C7.29877 112.552 6.39604 111.412 5.48829 110.275C1.88172 105.748 -0.576233 102.535 -0.000297077 96.4843C1.24011 92.619 4.02307 90.0542 7.03095 87.4999C9.30899 85.5512 11.3734 83.5638 13.281 81.2499C13.6541 80.8111 13.6541 80.8111 14.0347 80.3634C18.8999 74.5043 21.549 68.2253 23.3329 60.9139C24.769 55.2351 27.4183 51.4771 32.4216 48.4374C36.0659 46.3109 41.437 46.4778 44.9216 48.828Z" fill="black"/>
<path d="M71.875 89.8438C74.5009 90.9494 75.993 92.2893 77.7344 94.5312C77.9922 94.1445 78.25 93.7578 78.5156 93.3594C78.1289 93.2305 77.7422 93.1016 77.3438 92.9688C77.2949 92.041 77.2949 92.041 77.3438 91.0156C77.6016 90.7578 77.8594 90.5 78.125 90.2344C79.9572 90.3722 81.558 90.8067 83.273 91.4458C83.7317 91.6153 84.1904 91.7848 84.663 91.9595C85.1555 92.1447 85.648 92.3301 86.1404 92.5156C86.6513 92.706 87.1623 92.8962 87.6733 93.0863C88.7393 93.4835 89.8046 93.8826 90.8694 94.2832C92.2347 94.7967 93.6015 95.3057 94.9689 95.8134C96.0221 96.2048 97.0745 96.5984 98.1266 96.9926C98.6305 97.1812 99.1347 97.3692 99.639 97.5566C100.342 97.8181 101.044 98.0826 101.745 98.3474C102.344 98.572 102.344 98.572 102.956 98.8012C103.906 99.2188 103.906 99.2188 104.688 100C104.81 100.977 104.81 100.977 104.688 101.953C103.516 102.734 103.516 102.734 102.344 102.734C101.127 107.2 100.012 111.687 98.9258 116.187C98.7636 116.856 98.6013 117.526 98.439 118.195C98.0472 119.812 97.6562 121.43 97.2656 123.047C99.9956 121.977 102.726 120.908 105.455 119.838C106.381 119.475 107.308 119.112 108.234 118.749C109.575 118.224 110.916 117.698 112.257 117.172C112.906 116.918 112.906 116.918 113.568 116.659C115.42 115.933 117.27 115.204 119.113 114.458C119.389 114.346 119.665 114.235 119.95 114.119C120.651 113.835 121.352 113.548 122.052 113.261C123.047 112.891 123.047 112.891 123.828 112.891C123.715 112.544 123.603 112.198 123.486 111.841C123.438 110.547 123.438 110.547 123.945 109.993C124.557 109.527 125.169 109.06 125.781 108.594C126.289 109.577 126.793 110.562 127.295 111.548C127.509 111.961 127.509 111.961 127.727 112.382C128.594 114.092 129.223 115.717 129.688 117.578C127.947 117.771 127.947 117.771 126.172 117.969C126.043 117.453 125.914 116.938 125.781 116.406C116.073 121.351 116.073 121.351 106.474 126.502C102.786 128.537 99.0509 130.482 95.3125 132.422C95.5033 132.595 95.6942 132.767 95.8908 132.945C96.4844 133.594 96.4844 133.594 96.6064 134.595C96.4844 135.547 96.4844 135.547 95.7031 136.328C93.7497 136.192 92.0688 135.677 90.2461 134.986C89.8606 134.841 89.8606 134.841 89.4673 134.693C88.6248 134.375 87.784 134.054 86.9431 133.733C86.3521 133.509 85.7611 133.286 85.17 133.062C83.6171 132.475 82.0656 131.885 80.5142 131.294C79.2559 130.815 77.9968 130.338 76.7375 129.862C73.1608 128.509 69.5849 127.154 66.0156 125.781C65.6117 125.627 65.2078 125.473 64.7916 125.315C64.2637 125.11 64.2637 125.11 63.725 124.901C63.4273 124.787 63.1296 124.672 62.8228 124.554C62.1094 124.219 62.1094 124.219 61.3281 123.438C61.2793 122.485 61.2793 122.485 61.7188 121.484C62.4023 121.179 62.4023 121.179 63.2324 120.923C64.4423 120.524 64.7865 120.382 65.625 119.36C67.4252 112.947 64.0102 106.485 61.5902 100.675C61.3281 100 61.3281 100 61.3281 99.6094C62.6172 99.6094 63.9062 99.6094 65.2344 99.6094C65.7325 100.772 66.2286 101.936 66.7236 103.101C66.8629 103.425 67.0021 103.75 67.1455 104.084C68.0468 106.209 68.8374 108.345 69.5312 110.547C70.9923 108.687 72.0363 106.623 73.1445 104.541C73.3661 104.139 73.5876 103.737 73.8159 103.323C74.0234 102.933 74.2308 102.542 74.4446 102.139C74.6355 101.785 74.8265 101.431 75.0233 101.066C75.4731 99.7606 75.3573 98.9777 75 97.6562C74.3914 96.8887 74.3914 96.8887 73.6328 96.2402C71.8275 94.3426 71.8456 92.3672 71.875 89.8438Z" fill="#BB8A52"/>
<path d="M70.4409 18.9973C72.8926 21.0091 74.741 23.5577 75.7815 26.5626C75.7815 26.9493 75.7815 27.336 75.7815 27.7344C76.1229 27.8357 76.4643 27.9369 76.816 28.0411C81.6029 29.7762 86.7898 34.1314 89.0627 38.6719C89.3269 40.6344 89.3269 40.6344 88.6187 41.6566C86.9195 42.8962 84.4052 42.39 82.4221 42.1876C76.3921 40.8554 70.6141 37.6663 66.0159 33.5938C65.5693 33.2264 65.1218 32.86 64.6731 32.4952C63.9087 31.8426 63.203 31.1839 62.5002 30.4688C65.0103 34.9869 69.1908 38.909 73.4377 41.7969C72.4979 44.6671 70.137 46.5371 67.5189 47.9127C63.0711 49.8039 58.2948 50.4538 53.6349 48.819C48.7257 46.7389 45.6356 43.8141 43.3322 38.9634C41.7216 34.7182 41.8316 29.9969 43.4069 25.7813C45.3732 21.4144 48.3979 18.4286 52.7529 16.4521C58.9457 14.1093 65.0503 15.2166 70.4409 18.9973ZM61.3284 28.1251C61.719 28.9063 61.719 28.9063 61.719 28.9063L61.3284 28.1251ZM61.719 28.9063C62.1096 29.6876 62.1096 29.6876 62.1096 29.6876L61.719 28.9063Z" fill="black"/>
<path d="M39.77 57.4951C40.8806 58.4152 41.2513 59.2095 41.7964 60.5468C41.8902 61.6164 41.9245 62.5828 41.8925 63.6474C41.8879 63.9499 41.8832 64.2524 41.8785 64.564C41.8596 65.5691 41.8296 66.5734 41.7964 67.5781C41.785 67.932 41.7737 68.2858 41.762 68.6504C41.6858 70.9041 41.59 73.1565 41.4841 75.4089C41.4292 76.5827 41.3781 77.7566 41.3272 78.9306C41.2931 79.6793 41.2587 80.428 41.2242 81.1767C41.2016 81.7015 41.2016 81.7015 41.1785 82.2369C41.06 84.6758 41.06 84.6758 40.6245 85.5468C41.0319 85.5731 41.0319 85.5731 41.4474 85.6C44.9502 85.8284 48.4518 86.0726 51.9526 86.3281C52.251 86.3498 52.5494 86.3716 52.8568 86.3939C54.6977 86.5289 56.538 86.6701 58.3779 86.8182C58.9723 86.8654 59.5668 86.9111 60.1615 86.9552C68.0088 87.5405 68.0088 87.5405 70.1167 89.6484C71.1147 91.3117 71.2256 92.6128 71.0933 94.5312C70.2833 96.3642 68.9736 97.5442 67.187 98.4375C63.9402 98.5626 60.7158 98.2307 57.484 97.9522C56.8853 97.9015 56.2866 97.8508 55.6879 97.8002C54.438 97.6942 53.1881 97.587 51.9382 97.479C50.3463 97.3417 48.7541 97.2077 47.1619 97.0746C45.9268 96.971 44.6918 96.8652 43.457 96.7589C42.8704 96.7087 42.2838 96.6592 41.6971 96.6104C32.8381 95.8708 32.8381 95.8708 31.0176 94.1711C29.6572 92.3029 29.7928 90.4135 29.8823 88.1836C29.8956 87.5188 29.8956 87.5188 29.9091 86.8407C29.9484 85.2366 30.0112 83.6344 30.0776 82.0312C30.1046 81.3444 30.1315 80.6575 30.1583 79.9707C30.3424 75.3439 30.5468 70.7179 30.8107 66.0949C30.8543 65.3168 30.8928 64.5385 30.9308 63.7602C30.9559 63.3478 30.981 62.9355 31.0069 62.5106C31.0258 62.1707 31.0447 61.8308 31.0642 61.4806C31.4756 59.4075 32.6894 58.2108 34.3745 57.0312C36.257 56.4037 37.9822 56.7402 39.77 57.4951Z" fill="black"/>
<path d="M43.75 21.875C43.51 23.2608 43.1402 24.4828 42.6025 25.7812C42.4701 26.1035 42.3377 26.4258 42.2012 26.7578C42.0011 27.2412 42.0011 27.2412 41.7969 27.7344C41.7158 28.0486 41.6347 28.3628 41.5512 28.6865C40.8656 29.9679 40.0097 30.4695 38.8363 31.2973C37.72 32.1636 36.7403 33.1323 35.7574 34.1431C35.4763 34.4308 35.4763 34.4308 35.1894 34.7244C34.4122 35.5228 33.6381 36.324 32.8678 37.129C29.138 41.0154 25.5433 44.0457 19.9707 44.2627C16.4071 44.1699 13.2412 42.9791 10.5469 40.625C9.561 39.4212 9.02078 38.3184 8.88672 36.7432C8.91895 36.4773 8.95117 36.2114 8.98438 35.9375C9.23413 36.0422 9.48389 36.147 9.74121 36.2549C10.136 36.408 10.5308 36.561 10.9375 36.7187C11.1978 36.8356 11.4582 36.9524 11.7264 37.0728C13.7611 37.8995 15.0627 38.0012 17.1097 37.1689C20.0507 35.6278 22.2498 33.302 24.4675 30.8746C29.891 24.9423 35.1563 20.1563 43.75 21.875Z" fill="black"/>
<path d="M187.109 166.016C188.87 169.92 189.091 173.217 187.891 177.344C188.366 177.384 188.841 177.424 189.331 177.466C190.421 177.558 191.004 177.727 191.953 178.302C193.073 178.968 194.016 179.204 195.288 179.468C197.187 179.92 198.57 180.29 200 181.641C200.146 182.715 200.146 182.715 200 183.594C196.254 185.349 191.609 184.979 187.598 184.546C185.992 184.379 184.576 184.446 182.982 184.662C179.388 185.054 175.782 184.815 172.266 183.984C171.875 183.594 171.875 183.594 171.655 182.715C171.918 181.432 172.141 181.304 173.193 180.591C174.765 179.695 176.26 179.37 178.032 179.088C178.968 178.946 178.968 178.946 179.883 178.296C181.406 177.42 183.036 177.441 184.766 177.344C185.535 174.583 185.547 172.359 185.156 169.531C185.118 169.241 185.08 168.95 185.04 168.651C184.955 168.032 184.862 167.414 184.766 166.797C186.23 166.016 186.23 166.016 187.109 166.016Z" fill="#BB8A52"/>
<path d="M148.828 166.016C149.609 166.406 149.609 166.406 149.942 167.148C151.032 170.637 151.234 173.873 150 177.344C150.475 177.384 150.951 177.424 151.44 177.466C152.528 177.558 153.106 177.723 154.048 178.302C155.583 179.202 157.19 179.388 158.923 179.71C160.3 180.121 161.071 180.659 162.109 181.641C162.476 182.471 162.476 182.471 162.5 183.203C160.653 185.05 156.95 184.818 154.468 184.839C152.868 184.816 151.298 184.715 149.707 184.546C148.101 184.379 146.685 184.446 145.091 184.662C141.451 185.059 137.948 184.705 134.375 183.984C134.146 183.06 134.146 183.06 133.984 182.031C135.155 180.222 137.104 179.866 139.062 179.297C140.626 178.789 140.626 178.789 142.162 178.207C143.803 177.543 145.069 177.208 146.875 177.344C147.809 174.074 147.894 171.671 146.875 168.359C146.875 167.844 146.875 167.328 146.875 166.797C147.803 166.382 147.803 166.382 148.828 166.016Z" fill="#BB8A52"/>
<path d="M162.109 157.813C161.018 162.061 159.538 165.383 155.859 167.969C154.438 168.442 153.446 168.514 151.953 168.359C150.558 167.207 149.694 166.367 149.487 164.551C149.666 162.693 150.387 161.62 151.793 160.397C154.716 158.333 158.571 157.566 162.109 157.813Z" fill="#0C3E2E"/>
<path d="M173.438 156.25C177.182 156.397 181.145 156.881 184.058 159.448C185.182 160.736 185.614 161.906 185.678 163.612C185.437 165.158 184.768 165.776 183.594 166.797C181.91 167.506 180.568 167.048 178.906 166.406C177.038 165.057 176.095 163.876 175.073 161.768C174.845 161.309 174.617 160.851 174.382 160.379C173.808 158.934 173.589 157.785 173.438 156.25Z" fill="#0C3E2E"/>
<path d="M135.547 156.25C139.344 156.399 143.344 156.849 146.167 159.619C147.191 160.76 147.623 161.431 147.803 162.988C147.607 164.947 147.13 165.465 145.703 166.797C144.019 167.506 142.677 167.048 141.016 166.406C139.147 165.057 138.205 163.876 137.183 161.768C136.955 161.309 136.726 160.851 136.491 160.379C135.917 158.934 135.698 157.785 135.547 156.25Z" fill="#0C3E2E"/>
<path d="M200 157.813C199.016 161.87 197.349 165.607 193.75 167.969C192.329 168.442 191.337 168.514 189.844 168.359C188.449 167.207 187.584 166.367 187.378 164.551C187.557 162.693 188.278 161.62 189.684 160.397C192.607 158.333 196.462 157.566 200 157.813Z" fill="#0C3E2E"/>
<path d="M151.563 149.219C152.958 152.555 153.543 155.167 152.338 158.653C151.953 159.375 151.953 159.375 150.782 160.156C149.356 160.342 148.607 160.241 147.315 159.595C146.268 158.332 146.223 157.605 146.323 156.003C146.728 153.69 148.846 149.219 151.563 149.219Z" fill="#0C3E2E"/>
<path d="M189.454 149.219C190.587 151.891 191.038 154.526 190.625 157.422C190.066 158.517 189.541 159.288 188.672 160.156C187.148 160.289 186.054 160.234 184.766 159.375C184.027 157.897 184.132 156.293 184.375 154.688C185.187 152.955 187.308 149.219 189.454 149.219Z" fill="#0C3E2E"/>
<path d="M187.891 126.172C188.535 126.816 189.18 127.461 189.844 128.125C189.457 128.705 189.457 128.705 189.062 129.297C188.306 129.028 188.306 129.028 187.5 128.516C187.207 127.49 187.207 127.49 187.109 126.562C187.367 126.434 187.625 126.305 187.891 126.172Z" fill="black"/>
<path d="M184.375 122.656C185.495 122.88 185.883 122.993 186.719 123.828C186.572 124.658 186.572 124.658 186.328 125.391C185.941 125.391 185.555 125.391 185.156 125.391C184.473 124.683 184.473 124.683 183.984 123.828C184.113 123.441 184.242 123.055 184.375 122.656Z" fill="black"/>
<path d="M181.641 118.75C182.285 119.266 182.93 119.781 183.594 120.312C183.336 120.828 183.078 121.344 182.812 121.875C182.426 121.746 182.039 121.617 181.641 121.484C181.177 120.483 181.177 120.483 180.859 119.531C181.117 119.273 181.375 119.016 181.641 118.75Z" fill="black"/>
<path d="M165.234 108.203C166.137 108.461 167.039 108.719 167.969 108.984C167.84 109.5 167.711 110.016 167.578 110.547C165.723 110.205 165.723 110.205 164.844 109.766C164.973 109.25 165.102 108.734 165.234 108.203Z" fill="black"/>
<path d="M193.75 134.375C194.308 135.295 194.565 135.735 194.385 136.816C194.264 137.155 194.264 137.155 194.141 137.5C192.969 137.109 192.969 137.109 192.188 135.938C192.188 135.551 192.188 135.164 192.188 134.766C192.969 134.375 192.969 134.375 193.75 134.375Z" fill="black"/>
<path d="M169.531 132.812C169.918 132.941 170.305 133.07 170.703 133.203C171.167 134.204 171.167 134.204 171.484 135.156C170.969 135.285 170.453 135.414 169.922 135.547C168.75 134.082 168.75 134.082 168.75 133.203C169.008 133.074 169.266 132.945 169.531 132.812Z" fill="black"/>
<path d="M157.031 132.422C157.837 132.69 157.837 132.69 158.594 133.203C158.887 134.033 158.887 134.033 158.984 134.766C158.469 134.895 157.953 135.023 157.422 135.156C156.25 133.691 156.25 133.691 156.25 132.812C156.508 132.684 156.766 132.555 157.031 132.422Z" fill="black"/>
<path d="M168.359 118.75C169.141 119.141 169.922 119.531 170.703 119.922C170.574 120.438 170.445 120.953 170.312 121.484C169.58 121.387 169.58 121.387 168.75 121.094C168.237 120.337 168.237 120.337 167.969 119.531C168.098 119.273 168.227 119.016 168.359 118.75Z" fill="black"/>
<path d="M138.672 118.75C140.527 119.092 140.527 119.092 141.406 119.531C141.277 120.047 141.148 120.562 141.016 121.094C139.16 120.801 139.16 120.801 138.281 119.922C138.41 119.535 138.539 119.148 138.672 118.75Z" fill="black"/>
<path d="M177.734 115.625C178.759 116.035 179.216 116.269 179.785 117.236C179.882 117.478 179.979 117.72 180.078 117.969C179.37 118.237 179.37 118.237 178.516 118.359C177.808 117.896 177.808 117.896 177.344 117.188C177.466 116.333 177.466 116.333 177.734 115.625Z" fill="black"/>
<path d="M173.828 112.891C174.78 113.184 174.78 113.184 175.781 113.672C176.099 114.502 176.099 114.502 176.172 115.234C174.609 115.234 174.609 115.234 173.438 114.453C173.566 113.938 173.695 113.422 173.828 112.891Z" fill="black"/>
<path d="M169.922 110.156C170.695 110.543 171.469 110.93 172.266 111.328C172.137 111.844 172.008 112.359 171.875 112.891C171.086 112.656 170.304 112.393 169.531 112.109C169.402 111.852 169.273 111.594 169.141 111.328C169.398 110.941 169.656 110.555 169.922 110.156Z" fill="black"/>
<path d="M160.547 106.641C161.449 106.77 162.352 106.898 163.281 107.031C163.281 107.676 163.281 108.32 163.281 108.984C162.379 108.727 161.477 108.469 160.547 108.203C160.547 107.688 160.547 107.172 160.547 106.641Z" fill="black"/>
<path d="M176.172 144.922C176.43 145.051 176.688 145.18 176.953 145.312C177.197 146.509 177.197 146.509 177.344 147.656C176.828 147.785 176.312 147.914 175.781 148.047C175.523 147.273 175.266 146.5 175 145.703C175.387 145.445 175.773 145.188 176.172 144.922Z" fill="black"/>
<path d="M159.766 135.938C160.023 135.938 160.281 135.938 160.547 135.938C160.934 136.711 161.32 137.484 161.719 138.281C160.945 138.668 160.945 138.668 160.156 139.062C159.77 138.289 159.383 137.516 158.984 136.719C159.242 136.461 159.5 136.203 159.766 135.938Z" fill="black"/>
<path d="M180.469 132.422C181.201 132.495 181.201 132.495 182.031 132.812C182.52 133.813 182.52 133.813 182.812 134.766C182.297 134.895 181.781 135.023 181.25 135.156C180.64 134.448 180.64 134.448 180.078 133.594C180.207 133.207 180.336 132.82 180.469 132.422Z" fill="black"/>
<path d="M190.625 130.078C191.431 130.762 191.431 130.762 192.188 131.641C192.09 132.52 192.09 132.52 191.797 133.203C191.41 133.203 191.023 133.203 190.625 133.203C190.367 132.43 190.109 131.656 189.844 130.859C190.102 130.602 190.359 130.344 190.625 130.078Z" fill="black"/>
<path d="M166.406 129.297C167.139 129.395 167.139 129.395 167.969 129.688C168.457 130.493 168.457 130.493 168.75 131.25C167.977 131.637 167.977 131.637 167.188 132.031C166.577 131.323 166.577 131.323 166.016 130.469C166.145 130.082 166.273 129.695 166.406 129.297Z" fill="black"/>
<path d="M153.906 128.906C155.141 129.441 155.466 129.683 156.25 130.859C155.477 131.246 155.477 131.246 154.688 131.641C154.172 130.996 153.656 130.352 153.125 129.688C153.383 129.43 153.641 129.172 153.906 128.906Z" fill="black"/>
<path d="M163.281 125.781C164.305 126.191 164.763 126.426 165.332 127.393C165.429 127.634 165.525 127.876 165.625 128.125C164.917 128.394 164.917 128.394 164.062 128.516C163.354 128.052 163.354 128.052 162.891 127.344C163.013 126.489 163.013 126.489 163.281 125.781Z" fill="black"/>
<path d="M175.391 125C176.147 125.293 176.147 125.293 176.953 125.781C177.246 126.611 177.246 126.611 177.344 127.344C176.828 127.473 176.312 127.602 175.781 127.734C175.395 127.09 175.008 126.445 174.609 125.781C174.867 125.523 175.125 125.266 175.391 125Z" fill="black"/>
<path d="M160.156 122.656C160.801 123.043 161.445 123.43 162.109 123.828C161.98 124.344 161.852 124.859 161.719 125.391C160.986 125.293 160.986 125.293 160.156 125C159.668 124.194 159.668 124.194 159.375 123.438C159.633 123.18 159.891 122.922 160.156 122.656Z" fill="black"/>
<path d="M155.859 120.312C156.787 120.435 156.787 120.435 157.812 120.703C158.07 121.09 158.328 121.477 158.594 121.875C158.465 122.133 158.336 122.391 158.203 122.656C157.275 122.534 157.275 122.534 156.25 122.266C155.992 121.879 155.734 121.492 155.469 121.094C155.598 120.836 155.727 120.578 155.859 120.312Z" fill="black"/>
<path d="M160.547 114.453C161.191 114.582 161.836 114.711 162.5 114.844C162.629 115.359 162.758 115.875 162.891 116.406C161.719 116.797 161.719 116.797 160.864 116.431C160.631 116.294 160.397 116.157 160.156 116.016C160.285 115.5 160.414 114.984 160.547 114.453Z" fill="black"/>
<path d="M138.672 113.672C139.574 113.801 140.477 113.93 141.406 114.062C141.406 114.578 141.406 115.094 141.406 115.625C140.504 115.496 139.602 115.367 138.672 115.234C138.672 114.719 138.672 114.203 138.672 113.672Z" fill="black"/>
<path d="M166.406 152.734C166.922 152.734 167.438 152.734 167.969 152.734C168.098 153.637 168.227 154.539 168.359 155.469C167.715 155.34 167.07 155.211 166.406 155.078C166.406 154.305 166.406 153.531 166.406 152.734Z" fill="black"/>
<path d="M163.672 144.141C164.478 144.312 164.478 144.312 165.234 144.531C165.363 145.176 165.492 145.82 165.625 146.484C165.109 146.613 164.594 146.742 164.062 146.875C163.805 146.102 163.547 145.328 163.281 144.531C163.41 144.402 163.539 144.273 163.672 144.141Z" fill="black"/>
<path d="M173.828 141.016C174.634 141.187 174.634 141.187 175.391 141.406C175.52 142.051 175.648 142.695 175.781 143.359C175.266 143.488 174.75 143.617 174.219 143.75C173.961 142.977 173.703 142.203 173.438 141.406C173.566 141.277 173.695 141.148 173.828 141.016Z" fill="black"/>
<path d="M162.891 139.844C163.461 140.878 163.672 141.365 163.672 142.578C163.285 142.707 162.898 142.836 162.5 142.969C161.328 141.113 161.328 141.113 161.328 140.234C162.109 139.844 162.109 139.844 162.891 139.844Z" fill="black"/>
<path d="M195.312 138.672C196.289 139.521 196.655 140.129 196.875 141.406C196.359 141.535 195.844 141.664 195.312 141.797C194.742 140.763 194.531 140.276 194.531 139.062C194.789 138.934 195.047 138.805 195.312 138.672Z" fill="black"/>
<path d="M171.875 136.719C172.632 137.012 172.632 137.012 173.437 137.5C173.73 138.33 173.73 138.33 173.828 139.062C173.312 139.191 172.797 139.32 172.266 139.453C171.484 138.281 171.484 138.281 171.631 137.427C171.711 137.193 171.792 136.959 171.875 136.719Z" fill="black"/>
<path d="M182.812 136.328C183.199 136.328 183.586 136.328 183.984 136.328C184.242 137.102 184.5 137.875 184.766 138.672C184.25 138.801 183.734 138.93 183.203 139.062C182.945 138.289 182.688 137.516 182.422 136.719C182.551 136.59 182.68 136.461 182.812 136.328Z" fill="black"/>
<path d="M178.125 128.516C178.882 128.809 178.882 128.809 179.687 129.297C179.98 130.127 179.98 130.127 180.078 130.859C179.562 130.988 179.047 131.117 178.516 131.25C177.734 130.078 177.734 130.078 177.881 129.224C177.961 128.99 178.042 128.756 178.125 128.516Z" fill="black"/>
<path d="M150.781 125.781C151.426 126.297 152.07 126.812 152.734 127.344C152.605 127.73 152.477 128.117 152.344 128.516C151.611 128.418 151.611 128.418 150.781 128.125C150.293 127.319 150.293 127.319 150 126.562C150.258 126.305 150.516 126.047 150.781 125.781Z" fill="black"/>
<path d="M146.875 123.047C147.656 123.438 148.438 123.828 149.219 124.219C149.09 124.734 148.961 125.25 148.828 125.781C147.876 125.464 147.876 125.464 146.875 125C146.746 124.613 146.617 124.227 146.484 123.828C146.613 123.57 146.742 123.312 146.875 123.047Z" fill="black"/>
<path d="M171.875 121.875C172.607 121.973 172.607 121.973 173.438 122.266C173.926 123.071 173.926 123.071 174.219 123.828C173.832 124.086 173.445 124.344 173.047 124.609C172.531 124.094 172.016 123.578 171.484 123.047C171.613 122.66 171.742 122.273 171.875 121.875Z" fill="black"/>
<path d="M142.969 120.703C143.921 121.021 143.921 121.021 144.922 121.484C145.051 121.871 145.18 122.258 145.312 122.656C145.184 122.914 145.055 123.172 144.922 123.438C143.97 123.12 143.97 123.12 142.969 122.656C142.84 122.27 142.711 121.883 142.578 121.484C142.707 121.227 142.836 120.969 142.969 120.703Z" fill="black"/>
<path d="M151.953 117.969C152.742 118.204 153.524 118.466 154.297 118.75C154.426 119.008 154.555 119.266 154.688 119.531C154.559 119.789 154.43 120.047 154.297 120.312C152.441 119.971 152.441 119.971 151.562 119.531C151.691 119.016 151.82 118.5 151.953 117.969Z" fill="black"/>
<path d="M134.375 117.188C135.535 117.381 135.535 117.381 136.719 117.578C136.848 118.094 136.977 118.609 137.109 119.141C136.723 119.334 136.723 119.334 136.328 119.531C135.303 119.165 135.303 119.165 134.375 118.75C134.375 118.234 134.375 117.719 134.375 117.188Z" fill="black"/>
<path d="M164.453 116.406C165.227 116.664 166 116.922 166.797 117.188C166.797 117.703 166.797 118.219 166.797 118.75C164.941 118.408 164.941 118.408 164.062 117.969C164.191 117.453 164.32 116.938 164.453 116.406Z" fill="black"/>
<path d="M147.656 116.016C148.559 116.273 149.461 116.531 150.391 116.797C150.262 117.312 150.133 117.828 150 118.359C148.145 118.066 148.145 118.066 147.266 117.188C147.395 116.801 147.523 116.414 147.656 116.016Z" fill="black"/>
<path d="M143.359 114.844C144.262 114.973 145.164 115.102 146.094 115.234C145.965 115.75 145.836 116.266 145.703 116.797C144.543 116.604 144.543 116.604 143.359 116.406C143.359 115.891 143.359 115.375 143.359 114.844Z" fill="black"/>
<path d="M133.984 112.891C134.887 113.02 135.789 113.148 136.719 113.281C136.719 113.797 136.719 114.312 136.719 114.844C135.816 114.715 134.914 114.586 133.984 114.453C133.984 113.938 133.984 113.422 133.984 112.891Z" fill="black"/>
<path d="M151.562 111.328C152.465 111.457 153.367 111.586 154.297 111.719C154.297 112.234 154.297 112.75 154.297 113.281C153.395 113.152 152.492 113.023 151.562 112.891C151.562 112.375 151.562 111.859 151.562 111.328Z" fill="black"/>
<path d="M142.578 109.766C143.48 109.895 144.383 110.023 145.312 110.156C145.312 110.672 145.312 111.188 145.312 111.719C144.41 111.59 143.508 111.461 142.578 111.328C142.578 110.812 142.578 110.297 142.578 109.766Z" fill="black"/>
<path d="M136.328 109.375C136.328 109.891 136.328 110.406 136.328 110.938C135.426 111.066 134.523 111.195 133.594 111.328C133.594 110.812 133.594 110.297 133.594 109.766C134.567 109.497 135.304 109.375 136.328 109.375Z" fill="black"/>
<path d="M134.766 105.859C134.766 106.375 134.766 106.891 134.766 107.422C133.863 107.551 132.961 107.68 132.031 107.812C132.031 107.297 132.031 106.781 132.031 106.25C133.004 105.982 133.742 105.859 134.766 105.859Z" fill="black"/>
<path d="M155.859 105.469C156.762 105.598 157.664 105.727 158.594 105.859C158.594 106.375 158.594 106.891 158.594 107.422C157.691 107.293 156.789 107.164 155.859 107.031C155.859 106.516 155.859 106 155.859 105.469Z" fill="black"/>
<path d="M139.453 105.078C139.453 105.594 139.453 106.109 139.453 106.641C138.551 106.77 137.648 106.898 136.719 107.031C136.719 106.516 136.719 106 136.719 105.469C137.681 104.988 138.39 105.05 139.453 105.078Z" fill="black"/>
<path d="M151.172 104.688C152.074 104.816 152.977 104.945 153.906 105.078C153.906 105.594 153.906 106.109 153.906 106.641C153.004 106.512 152.102 106.383 151.172 106.25C151.172 105.734 151.172 105.219 151.172 104.688Z" fill="black"/>
<path d="M165.234 148.438C166.04 148.608 166.04 148.608 166.797 148.828C166.926 149.473 167.055 150.117 167.188 150.781C166.672 150.91 166.156 151.039 165.625 151.172C165.367 150.398 165.109 149.625 164.844 148.828C164.973 148.699 165.102 148.57 165.234 148.438Z" fill="black"/>
<path d="M156.25 112.5C157.023 112.758 157.797 113.016 158.594 113.281C158.594 113.797 158.594 114.312 158.594 114.844C157.434 114.65 157.434 114.65 156.25 114.453C156.121 114.066 155.992 113.68 155.859 113.281C155.988 113.023 156.117 112.766 156.25 112.5Z" fill="black"/>
<path d="M146.484 104.688C147.387 104.688 148.289 104.688 149.219 104.688C149.219 105.203 149.219 105.719 149.219 106.25C148.316 106.25 147.414 106.25 146.484 106.25C146.484 105.734 146.484 105.219 146.484 104.688Z" fill="black"/>
<path d="M141.406 104.688C142.309 104.688 143.211 104.688 144.141 104.688C144.141 105.203 144.141 105.719 144.141 106.25C143.238 106.25 142.336 106.25 141.406 106.25C141.406 105.734 141.406 105.219 141.406 104.688Z" fill="black"/>
<path d="M147.266 110.547C148.039 110.547 148.812 110.547 149.609 110.547C149.738 110.934 149.867 111.32 150 111.719C149.742 111.977 149.484 112.234 149.219 112.5C148.193 112.354 148.193 112.354 147.266 112.109C147.266 111.594 147.266 111.078 147.266 110.547Z" fill="black"/>
<path d="M138.281 109.375C139.441 109.568 139.441 109.568 140.625 109.766C140.625 110.281 140.625 110.797 140.625 111.328C139.723 111.199 138.82 111.07 137.891 110.938C138.02 110.422 138.148 109.906 138.281 109.375Z" fill="black"/>
<path d="M168.75 157.031C168.75 157.676 168.75 158.32 168.75 158.984C168.234 158.984 167.719 158.984 167.188 158.984C167.188 158.469 167.188 157.953 167.188 157.422C168.359 157.031 168.359 157.031 168.75 157.031Z" fill="black"/>
<path d="M197.656 142.969C197.914 143.484 198.172 144 198.438 144.531C197.922 144.66 197.406 144.789 196.875 144.922C196.746 144.406 196.617 143.891 196.484 143.359C196.871 143.23 197.258 143.102 197.656 142.969Z" fill="black"/>
<path d="M184.375 140.625C184.891 140.625 185.406 140.625 185.938 140.625C186.066 141.012 186.195 141.398 186.328 141.797C185.684 141.926 185.039 142.055 184.375 142.188C184.375 141.672 184.375 141.156 184.375 140.625Z" fill="black"/>
<path d="M131.25 116.406C131.766 116.406 132.281 116.406 132.812 116.406C132.684 116.922 132.555 117.438 132.422 117.969C131.906 117.969 131.391 117.969 130.859 117.969C130.988 117.453 131.117 116.938 131.25 116.406Z" fill="black"/>
<path d="M130.469 112.891C131.113 112.891 131.758 112.891 132.422 112.891C132.293 113.406 132.164 113.922 132.031 114.453C131.516 114.324 131 114.195 130.469 114.062C130.469 113.676 130.469 113.289 130.469 112.891Z" fill="black"/>
<path d="M130.078 109.766C130.594 109.766 131.109 109.766 131.641 109.766C131.641 110.281 131.641 110.797 131.641 111.328C131.125 111.457 130.609 111.586 130.078 111.719C130.078 111.074 130.078 110.43 130.078 109.766Z" fill="black"/>
<path d="M176.953 149.609C177.34 149.609 177.727 149.609 178.125 149.609C178.254 150.125 178.383 150.641 178.516 151.172C177.871 151.043 177.227 150.914 176.562 150.781C176.691 150.395 176.82 150.008 176.953 149.609Z" fill="black"/>
<path d="M130.078 107.031C129.949 107.676 129.82 108.32 129.688 108.984C129.301 108.855 128.914 108.727 128.516 108.594C128.516 108.207 128.516 107.82 128.516 107.422C129.297 107.031 129.297 107.031 130.078 107.031Z" fill="black"/>
</g>
<defs>
<clipPath id="clip0_1_180">
<rect width="200" height="200" fill="white"/>
</clipPath>
</defs>
</svg>
