<svg width="201" height="200" viewBox="0 0 201 200" fill="none" xmlns="http://www.w3.org/2000/svg">
<path d="M49.3286 105.859C51.1933 107.64 52.8023 109.713 52.8717 112.387C52.8626 112.682 52.8535 112.977 52.8442 113.281C52.4429 113.084 52.0416 112.886 51.6281 112.683C47.1668 110.518 47.1668 110.518 42.2973 110.547C40.5585 111.4 39.4892 112.476 38.3911 114.062C37.7933 115.856 37.6327 117.725 38.2812 119.533C39.5391 121.881 41.37 123.068 43.7439 124.126C44.1588 124.313 44.5737 124.5 45.0012 124.692C45.4302 124.883 45.8592 125.073 46.3012 125.268C47.1581 125.652 48.0146 126.036 48.8708 126.42C49.2491 126.589 49.6274 126.757 50.0171 126.93C50.8911 127.344 50.8911 127.344 51.2817 127.734C51.1881 131.122 50.4541 134.527 49.8993 137.862C49.5243 140.206 49.2582 142.523 49.1104 144.893C49.0934 145.16 49.0764 145.427 49.0589 145.703C49.0177 146.354 48.9777 147.005 48.9379 147.656C49.2301 147.578 49.5222 147.5 49.8232 147.419C52.5965 146.677 55.3714 145.941 58.148 145.211C59.575 144.836 61.0013 144.459 62.4262 144.076C63.8052 143.706 65.1857 143.342 66.5674 142.982C67.0904 142.845 67.6128 142.705 68.1346 142.564C71.9081 141.54 76.2019 140.428 79.9682 142.017C82.1861 143.339 83.6658 145.227 84.4848 147.656C84.735 148.976 84.9043 150.304 85.0755 151.635C85.129 152.035 85.1824 152.435 85.2375 152.847C85.4133 154.167 85.5855 155.488 85.7574 156.808C85.8787 157.727 86.0002 158.646 86.1219 159.565C86.3763 161.491 86.6289 163.418 86.8803 165.344C87.2022 167.811 87.5279 170.277 87.8549 172.743C88.1063 174.641 88.3559 176.539 88.6049 178.437C88.7243 179.346 88.8442 180.256 88.9647 181.165C89.1328 182.437 89.2987 183.709 89.464 184.982C89.5139 185.356 89.5638 185.731 89.6152 186.116C90.071 189.663 90.1843 192.507 88.3911 195.703C86.7384 197.658 84.5668 198.997 82.0053 199.342C79.2555 199.474 76.9127 198.874 74.8016 197.053C71.7656 193.786 71.5634 189.444 71.0159 185.223C70.9303 184.583 70.8444 183.944 70.7582 183.304C70.579 181.968 70.4023 180.633 70.2275 179.297C70.0035 177.585 69.7754 175.874 69.5458 174.164C69.3264 172.528 69.1091 170.892 68.8919 169.257C68.8504 168.945 68.8089 168.634 68.7662 168.314C68.6492 167.433 68.5336 166.553 68.4186 165.672C68.3527 165.171 68.2868 164.671 68.219 164.155C68.0786 162.891 68.0786 162.891 68.0786 161.328C67.6622 161.445 67.2458 161.562 66.8169 161.683C62.6162 162.861 58.4049 163.99 54.1797 165.076C53.1725 165.335 52.1661 165.598 51.1596 165.86C50.5076 166.028 49.8556 166.196 49.2035 166.363C48.7609 166.479 48.7609 166.479 48.3094 166.598C42.5478 168.066 35.3628 168.6 30.0171 165.552C26.1146 162.752 24.3302 158.923 23.5473 154.297C23.0453 150.883 23.0707 147.437 23.0629 143.995C23.0591 143.007 23.047 142.02 23.0346 141.033C22.993 134.737 23.8646 128.75 25.6469 122.705C25.7673 122.29 25.8877 121.875 26.0117 121.447C26.3537 120.285 26.7047 119.126 27.0629 117.969C27.1506 117.685 27.2383 117.402 27.3286 117.11C28.9693 111.972 31.7816 108.235 36.4379 105.469C40.4674 103.478 45.621 103.041 49.3286 105.859Z" fill="black"/>
<path d="M142.688 16.7969C144.234 16.7969 145.781 16.7969 147.375 16.7969C147.11 23.7459 146.584 30.6721 146.052 37.6045C145.87 39.9839 145.689 42.3634 145.509 44.743C145.446 45.567 145.383 46.391 145.319 47.2149C145.281 47.7123 145.243 48.2097 145.204 48.7222C145.171 49.1589 145.137 49.5956 145.103 50.0456C145.046 50.9404 145.031 51.8378 145.031 52.7344C150.933 50.7575 154.217 48.2576 157.675 43.1183C158.722 41.5898 159.863 40.1356 160.998 38.6719C161.414 38.1274 161.83 37.5826 162.246 37.0377C165.43 32.8816 165.43 32.8816 166.516 31.6406C166.645 31.6406 166.773 31.6406 166.906 31.6406C167.219 34.2949 166.309 35.5441 164.709 37.5977C164.483 37.8984 164.257 38.1992 164.024 38.5091C163.543 39.1481 163.06 39.7853 162.575 40.4207C161.824 41.412 161.088 42.4131 160.356 43.4189C160.116 43.7478 159.876 44.0768 159.63 44.4157C159.396 44.7358 159.163 45.0559 158.923 45.3857C158.08 46.5426 157.227 47.6897 156.359 48.8281C156.178 49.0756 155.997 49.323 155.81 49.5779C154.276 51.5453 152.503 52.5339 150.28 53.6133C149.629 53.9404 148.977 54.268 148.326 54.5959C148.04 54.7361 147.754 54.8762 147.46 55.0205C147.174 55.1684 146.888 55.3163 146.594 55.4687C146.243 55.6272 145.891 55.7857 145.529 55.9489C144.53 56.5795 144.53 56.5795 144.358 57.7905C144.343 58.2575 144.328 58.7245 144.313 59.2056C144.303 59.462 144.293 59.7185 144.283 59.9826C144.185 63.1576 144.302 66.3341 144.421 69.5068C144.442 70.12 144.462 70.7331 144.483 71.3463C144.532 72.8247 144.585 74.303 144.641 75.7812C145.389 75.5239 146.137 75.2665 146.885 75.0092C147.362 74.8452 147.84 74.6812 148.331 74.5122C149.377 74.1524 150.421 73.7894 151.464 73.424C155.913 71.8696 155.913 71.8696 157.98 71.2997C162.363 70.0532 165 67.6457 168.135 64.3984C169.565 62.964 171.112 61.6383 172.691 60.3703C174.747 58.6695 176.175 56.8561 177.609 54.6173C177.828 54.284 178.047 53.9506 178.273 53.6072C178.964 52.5541 179.649 51.4971 180.334 50.4394C181.028 49.3742 181.723 48.3098 182.42 47.2466C182.852 46.5877 183.281 45.9274 183.709 45.2656C183.902 44.9694 184.095 44.6733 184.294 44.3682C184.463 44.1066 184.633 43.8451 184.807 43.5757C185.266 42.9687 185.266 42.9687 186.047 42.5781C186.148 44.3321 185.963 45.3574 185.073 46.8689C184.864 47.2308 184.655 47.5928 184.44 47.9657C184.213 48.347 183.986 48.7283 183.752 49.1211C183.281 49.9259 182.811 50.7311 182.342 51.5366C182.108 51.9358 181.874 52.335 181.633 52.7464C181.033 53.7936 180.465 54.8491 179.913 55.9219C177.978 59.6627 176.14 62.237 172.766 64.8437C172.057 65.4203 171.349 65.9981 170.642 66.5771C170.304 66.8465 169.965 67.1159 169.617 67.3934C168.464 68.3337 168.464 68.3337 167.471 69.3652C164.331 72.526 161.053 74.1055 156.945 75.7324C156.347 75.9777 155.75 76.2238 155.152 76.4709C154.004 76.9446 152.853 77.4124 151.699 77.8744C149.883 78.6031 148.082 79.3682 146.283 80.1393C145.422 80.4687 145.422 80.4687 144.641 80.4687C144.666 80.6927 144.692 80.9166 144.718 81.1473C145.014 83.8894 145.154 86.6242 145.251 89.3799C145.268 89.8365 145.284 90.2931 145.301 90.7636C145.441 94.8851 145.462 99.0017 145.422 103.125C145.669 103.011 145.916 102.897 146.171 102.78C146.913 102.439 147.656 102.097 148.399 101.756C149.252 101.364 150.106 100.97 150.959 100.576C152.905 99.6797 154.85 98.7936 156.834 97.9843C160.097 96.6443 162.601 95.323 165.136 92.7841C166.494 91.4284 167.982 90.2614 169.48 89.0655C170.438 88.2991 170.438 88.2991 171.263 87.3962C171.62 87.0609 171.62 87.0609 171.984 86.7187C173.309 86.7818 173.775 86.9465 174.719 87.8906C172.718 89.9278 170.715 91.9319 168.542 93.7851C167.089 95.0538 165.697 96.3911 164.297 97.7173C161.247 100.426 157.724 102.398 154.162 104.346C153.318 104.81 152.475 105.275 151.632 105.74C151.264 105.942 150.896 106.143 150.517 106.351C149.929 106.688 149.929 106.688 149.328 107.031C149.07 107.144 148.811 107.256 148.544 107.372C147.619 107.827 146.938 108.256 146.203 108.984C145.718 110.426 145.744 111.833 145.747 113.344C145.736 113.785 145.724 114.227 145.713 114.681C145.679 116.148 145.667 117.614 145.655 119.081C145.636 120.114 145.615 121.148 145.593 122.181C145.542 124.638 145.507 127.095 145.478 129.552C145.445 132.28 145.396 135.007 145.345 137.734C145.261 142.21 145.188 146.687 145.122 151.164C145.045 156.377 144.944 161.589 144.824 166.801C144.816 167.144 144.808 167.487 144.8 167.84C144.675 173.354 144.498 178.865 144.25 184.375C144.741 184.512 145.233 184.649 145.739 184.79C146.016 184.867 146.292 184.944 146.577 185.023C147.45 185.233 147.45 185.233 148.547 184.766C149.29 185.008 149.29 185.008 150.114 185.411C150.41 185.553 150.706 185.696 151.01 185.842C151.317 185.994 151.624 186.147 151.94 186.304C152.252 186.455 152.563 186.605 152.884 186.761C153.654 187.134 154.421 187.511 155.188 187.891C155.188 188.535 155.188 189.18 155.188 189.844C156.647 190.265 156.647 190.265 158.044 189.77C159.33 189.382 159.61 189.595 160.778 190.186C161.254 190.459 161.729 190.733 162.219 191.016C161.961 192.176 161.703 193.336 161.438 194.531C161.051 194.531 160.664 194.531 160.266 194.531C160.177 194.765 160.088 194.999 159.997 195.239C159.292 196.414 158.815 196.757 157.531 197.266C156.185 197.322 154.915 197.275 153.625 196.875C153.368 196.486 153.368 196.486 153.105 196.089C152.519 195.23 152.519 195.23 151.55 195.118C151.03 195.117 151.03 195.117 150.5 195.116C149.932 195.105 149.932 195.105 149.353 195.094C148.958 195.093 148.563 195.093 148.156 195.093C147.375 195.089 146.594 195.081 145.812 195.067C145.466 195.067 145.12 195.066 144.763 195.066C143.681 194.893 143.402 194.546 142.688 193.75C140.697 193.754 138.827 194.445 137.097 195.386C136.09 195.93 135.757 196.098 134.582 196.045C133.736 195.716 132.935 195.363 132.141 194.922C132.141 195.18 132.141 195.437 132.141 195.703C131.466 195.902 130.79 196.096 130.114 196.289C129.55 196.452 129.55 196.452 128.974 196.619C127.901 196.862 126.986 196.923 125.891 196.875C125.762 196.617 125.633 196.359 125.5 196.094C124.489 195.884 123.519 195.729 122.497 195.605C122.22 195.565 121.944 195.525 121.659 195.483C119.839 195.255 118.649 195.439 116.906 196.094C114.533 196.179 112.427 195.435 110.266 194.531C110.146 193.254 110.181 192.216 110.656 191.016C112.342 189.718 114.385 188.838 116.54 189.111C117.688 189.453 117.688 189.453 118.469 189.844C118.469 188.941 118.469 188.039 118.469 187.109C120.078 186.605 121.464 186.226 123.156 186.328C123.156 186.07 123.156 185.812 123.156 185.547C124.359 185.021 125.564 184.502 126.77 183.984C127.11 183.835 127.451 183.686 127.803 183.533C128.132 183.392 128.462 183.251 128.802 183.105C129.105 182.975 129.408 182.844 129.719 182.709C130.578 182.422 130.578 182.422 132.141 182.422C132.96 176.609 133.428 170.76 133.935 164.914C134.062 163.451 134.191 161.989 134.319 160.526C134.561 157.763 134.803 155 135.044 152.237C135.476 147.285 135.909 142.332 136.343 137.379C136.495 135.645 136.647 133.91 136.798 132.176C136.869 131.357 136.941 130.539 137.012 129.72C137.099 128.726 137.186 127.732 137.272 126.738C137.472 124.458 137.696 122.19 138 119.922C137.553 119.795 137.553 119.795 137.097 119.666C130.488 117.257 125.624 113.675 121.75 107.846C120.97 106.683 120.124 105.58 119.274 104.468C118.871 103.921 118.871 103.921 118.46 103.363C117.947 102.686 117.415 102.022 116.867 101.373C114.789 98.9065 114.789 98.9065 114.782 97.2412C114.839 96.8625 114.895 96.4839 114.953 96.0937C116.243 97.074 117.287 98.0338 118.273 99.3164C119.25 100.568 120.232 101.814 121.238 103.043C121.451 103.303 121.664 103.563 121.883 103.832C122.329 104.374 122.776 104.915 123.224 105.454C124.204 106.642 125.091 107.782 125.888 109.105C128.572 113.534 133.366 114.954 138 116.797C138.32 114.809 138.465 112.861 138.507 110.848C138.518 110.384 138.518 110.384 138.53 109.911C138.555 108.899 138.577 107.886 138.6 106.874C138.616 106.169 138.633 105.463 138.651 104.758C138.695 102.908 138.738 101.057 138.78 99.2073C138.823 97.3167 138.868 95.4262 138.913 93.5356C139.001 89.8311 139.087 86.1265 139.172 82.4219C138.634 82.248 138.634 82.248 138.086 82.0706C136.64 81.5763 135.292 80.9378 133.924 80.2628C133.648 80.128 133.372 79.9932 133.088 79.8544C132.498 79.5664 131.909 79.2778 131.321 78.9886C130.09 78.3844 128.859 77.7835 127.627 77.1824C127.01 76.8813 126.393 76.5801 125.777 76.2787C123.2 75.0194 120.617 73.7719 118.029 72.5342C117.684 72.3683 117.338 72.2024 116.982 72.0315C116.658 71.8766 116.334 71.7218 116 71.5622C115.694 71.4148 115.388 71.2675 115.073 71.1157C114.474 70.8414 113.865 70.5868 113.249 70.3531C110.786 69.3996 109.55 68.0525 107.922 66.0156C107.447 65.4934 106.966 64.9761 106.48 64.4638C106.234 64.2039 105.989 63.9441 105.736 63.6764C105.483 63.409 105.229 63.1417 104.968 62.8662C104.422 62.2885 103.876 61.7107 103.331 61.1328C103.057 60.8428 102.783 60.5527 102.5 60.2539C101.178 58.8506 99.8619 57.4408 98.5469 56.0303C98.3104 55.7767 98.074 55.5231 97.8304 55.2619C97.2878 54.6799 96.7455 54.0978 96.2031 53.5156C96.7467 52.1566 97.2315 51.7654 98.5469 51.1719C98.798 51.4425 98.798 51.4425 99.0543 51.7187C109.425 63.3697 109.425 63.3697 122.894 70.6034C125.607 71.5312 128.212 72.7312 130.836 73.8821C132.321 74.5305 133.812 75.1639 135.304 75.798C137.887 76.8965 137.887 76.8965 138.781 77.3437C139.431 72.0896 139.431 72.0896 137.442 67.4248C136.485 66.4025 135.497 65.4209 134.484 64.4531C130.48 60.3682 129.432 56.0334 128.162 50.5506C127.848 49.2361 127.502 47.9349 127.142 46.6324C127.03 46.225 126.918 45.8175 126.803 45.3978C126.59 44.6263 126.376 43.8553 126.16 43.0849C126.067 42.7379 125.974 42.3909 125.878 42.0334C125.796 41.7319 125.713 41.4303 125.627 41.1197C125.478 40.0842 125.635 39.2894 125.891 38.2812C126.277 38.1523 126.664 38.0234 127.062 37.8906C127.13 38.1439 127.197 38.3972 127.267 38.6582C127.972 41.3038 128.69 43.9457 129.416 46.5857C129.685 47.5703 129.95 48.5558 130.212 49.5421C130.591 50.9632 130.981 52.3807 131.373 53.7979C131.544 54.456 131.544 54.456 131.719 55.1274C132.502 57.8972 133.451 59.4915 135.656 61.3281C136.391 62.1496 137.102 62.9854 137.812 63.8275C138.362 64.4965 138.362 64.4965 139.172 64.8437C139.188 64.6175 139.203 64.3912 139.22 64.1581C139.604 58.6412 139.988 53.1243 140.374 47.6074C140.56 44.9395 140.747 42.2715 140.932 39.6035C141.111 37.0276 141.291 34.4518 141.472 31.876C141.54 30.8944 141.609 29.9128 141.677 28.9312C141.772 27.5539 141.869 26.1767 141.966 24.7994C141.993 24.3957 142.021 23.9919 142.05 23.5759C142.21 21.3082 142.421 19.0547 142.688 16.7969Z" fill="#BB8A52"/>
<path d="M50.4997 167.188C51.4953 169.717 52.4893 172.248 53.4823 174.779C53.8204 175.64 54.1587 176.501 54.4974 177.361C54.9841 178.598 55.4696 179.836 55.9548 181.073C56.1065 181.458 56.2583 181.843 56.4147 182.24C56.5554 182.599 56.6962 182.959 56.8412 183.329C56.9652 183.645 57.0893 183.961 57.2171 184.286C58.3241 187.355 58.0353 190.006 56.7497 192.969C55.5677 194.969 53.7705 195.986 51.6716 196.875C50.3519 197.131 49.0776 197.139 47.7363 197.122C47.3598 197.124 46.9833 197.127 46.5954 197.13C45.3611 197.137 44.1275 197.129 42.8932 197.121C42.0299 197.121 41.1667 197.122 40.3034 197.124C38.4984 197.125 36.6937 197.119 34.8888 197.108C32.5801 197.095 30.2717 197.097 27.963 197.105C26.1818 197.109 24.4007 197.105 22.6196 197.099C21.7685 197.097 20.9174 197.097 20.0663 197.1C18.8753 197.102 17.6848 197.094 16.4939 197.083C15.9711 197.087 15.9711 197.087 15.4378 197.091C12.7824 197.051 10.7227 196.381 8.6937 194.63C8.51948 194.412 8.34525 194.194 8.16575 193.97C7.98548 193.753 7.80521 193.536 7.61948 193.312C6.10126 190.986 6.04327 188.636 6.35911 185.938C7.15795 183.165 8.53889 181.591 10.9749 180.101C12.53 179.347 13.8921 179.249 15.6117 179.253C16.0573 179.253 16.503 179.253 16.9621 179.253C17.4411 179.255 17.9201 179.257 18.4136 179.259C18.9055 179.259 19.3975 179.26 19.9045 179.26C21.2094 179.262 22.5142 179.266 23.8191 179.27C25.1519 179.274 26.4847 179.276 27.8175 179.278C30.4304 179.282 33.0432 179.289 35.656 179.297C35.5258 178.97 35.3957 178.642 35.2615 178.305C34.78 177.093 34.2997 175.88 33.8202 174.667C33.6122 174.141 33.4038 173.616 33.1949 173.091C32.8951 172.337 32.5969 171.583 32.299 170.828C32.119 170.374 31.939 169.92 31.7535 169.452C31.3591 168.359 31.3591 168.359 31.3591 167.578C34.2738 167.93 34.2738 167.93 35.5827 168.172C39.8276 168.812 43.9097 168.338 48.066 167.444C49.3279 167.188 49.3279 167.188 50.4997 167.188Z" fill="black"/>
<path d="M63.1464 74.1943C64.1718 75 64.1718 75 64.9805 75.9781C66.5241 77.2932 67.8717 77.4385 69.8359 77.7344C78.5957 79.2744 78.5957 79.2744 81.3593 82.4219C81.8476 83.5937 81.8476 83.5937 81.7499 84.7656C79.9344 86.9962 77.4885 87.5309 74.7187 87.8906C67.7739 88.4081 60.3536 87.9013 54.0156 84.7656C58.5081 88.2847 64.1879 89.6838 69.6406 91.0156C69.1451 94.729 67.0548 97.9208 64.1459 100.258C60.3519 102.943 56.1204 103.947 51.5009 103.296C47.2781 102.38 43.7957 100.274 41.1249 96.875C38.5497 92.8038 37.8029 88.5337 38.6347 83.7891C39.5693 80.161 41.6589 76.8778 44.6406 74.6094C50.6534 71.0697 57.0109 70.6721 63.1464 74.1943Z" fill="black"/>
<path d="M95.0308 109.497C95.4175 109.823 95.4175 109.823 95.8121 110.156C96.0296 110.309 96.2471 110.462 96.4712 110.62C97.4748 112.006 97.7835 113.576 97.7484 115.256C97.3428 117.708 95.8032 118.917 93.8589 120.312C92.0374 121.354 90.1593 122.263 88.2681 123.169C87.4762 123.555 86.6851 123.942 85.894 124.33C85.3711 124.586 84.848 124.842 84.3245 125.097C82.2299 126.12 80.1664 127.195 78.1119 128.296C76.9822 128.893 75.8505 129.486 74.7183 130.078C74.4229 130.234 74.1275 130.39 73.8232 130.55C72.9379 131.013 72.0472 131.462 71.1539 131.909C70.8949 132.047 70.6359 132.184 70.3691 132.326C68.3336 133.32 66.7453 133.425 64.5621 132.812C62.7175 132.093 60.944 131.24 59.1665 130.371C58.6536 130.125 58.1404 129.879 57.6269 129.633C56.833 129.254 56.0394 128.874 55.2466 128.492C53.4166 127.611 51.5759 126.758 49.7259 125.92C49.2271 125.693 48.7283 125.466 48.2295 125.239C47.2898 124.812 46.3487 124.388 45.4065 123.966C40.3615 121.657 40.3615 121.657 39.0249 119.409C38.5296 117.279 38.4455 115.847 39.4888 113.94C41.4169 111.572 41.4169 111.572 43.4277 111.186C47.0079 110.913 49.984 112.731 53.0874 114.282C53.6562 114.561 54.2254 114.839 54.7949 115.116C55.076 115.253 55.3571 115.39 55.6467 115.531C55.9271 115.667 56.2074 115.803 56.4963 115.944C56.7753 116.08 57.0543 116.215 57.3418 116.355C58.1852 116.765 59.0296 117.172 59.8746 117.578C60.1612 117.716 60.4478 117.854 60.7431 117.996C61.5847 118.396 62.43 118.787 63.2773 119.176C63.5295 119.297 63.7817 119.418 64.0416 119.542C65.6957 120.286 66.7316 120.443 68.4683 119.922C69.4165 119.501 70.3154 119.068 71.2286 118.582C71.4894 118.447 71.7502 118.311 72.0188 118.172C72.5754 117.882 73.1312 117.591 73.6863 117.299C74.5542 116.842 75.4245 116.39 76.2955 115.939C78.8415 114.618 81.3761 113.282 83.8812 111.885C84.2452 111.685 84.6093 111.485 84.9843 111.278C85.6345 110.919 86.2808 110.552 86.9216 110.175C89.4776 108.767 92.2886 108.297 95.0308 109.497Z" fill="black"/>
<path d="M116.906 49.2188C118.078 49.6094 118.078 49.6094 118.678 50.6485C120.653 55.0475 121.939 58.5132 120.44 63.2751C119.924 64.27 119.439 64.6775 118.469 65.2344C116.636 65.5651 115.046 65.486 113.391 64.624C112.002 62.9311 111.739 61.246 111.828 59.1064C112.313 55.3552 114.537 52.0749 116.906 49.2188Z" fill="#0C3E2E"/>
<path d="M109.094 68.3594C110.279 69.6027 110.61 70.376 110.852 72.0703C110.613 73.7369 110.21 74.5219 109.094 75.7812C105.333 77.7288 101.131 77.3865 97.1797 76.1719C96.4603 75.9204 95.7427 75.6635 95.0312 75.3906C95.0312 73.8255 95.5881 73.3642 96.6014 72.2305C99.9981 68.9544 104.383 66.4108 109.094 68.3594Z" fill="#0C3E2E"/>
<path d="M102.062 89.8438C102.449 89.8438 102.836 89.8438 103.234 89.8438C104.771 92.5962 104.927 95.6501 104.136 98.6969C103.369 100.617 102.339 102.106 100.5 103.125C98.6526 103.912 96.7749 104.534 94.8359 105.054C93.7752 105.382 93.7752 105.382 93.3635 106.427C92.4701 107.742 91.8028 107.817 90.2705 108.13C89.6338 108.267 89.6338 108.267 88.9842 108.406C88.6594 108.468 88.3346 108.53 88 108.594C88.1931 106.681 89.1472 105.365 90.2217 103.833C90.5769 103.315 90.9314 102.796 91.2852 102.277C91.458 102.024 91.6308 101.771 91.8088 101.51C92.8179 100.003 93.7258 98.4398 94.6406 96.875C96.9609 97.2617 96.9609 97.2617 99.3281 97.6562C100.456 96.1807 100.456 96.1807 100.956 94.574C101.056 94.1586 101.056 94.1586 101.158 93.7347C101.223 93.4497 101.288 93.1647 101.354 92.8711C101.424 92.58 101.493 92.289 101.564 91.9891C101.734 91.2748 101.899 90.5594 102.062 89.8438ZM96.9844 100C96.9844 100.387 96.9844 100.773 96.9844 101.172C97.3711 101.043 97.7578 100.914 98.1562 100.781C98.1562 100.523 98.1562 100.266 98.1562 100C97.7695 100 97.3828 100 96.9844 100Z" fill="black"/>
<path d="M143.078 0C143.465 0 143.852 0 144.25 0C147.297 3.38557 148.711 6.81804 148.755 11.322C148.502 12.7578 147.987 13.4134 146.985 14.4531C145.619 15.136 144.178 15.0578 142.688 14.8438C141.05 13.8333 140.585 12.7203 140.149 10.9131C139.585 6.92158 141.165 3.41924 143.078 0Z" fill="#0C3E2E"/>
<path d="M87.2192 37.5C90.6005 38.031 93.5536 39.8782 95.6649 42.5491C96.8851 44.3846 97.4757 45.7324 97.1801 47.9492C96.5019 49.4187 96.0635 50.0081 94.641 50.7812C92.6742 51.0622 91.9434 51.0443 90.2465 50C88.4671 48.2982 87.3135 45.8149 87.1748 43.3537C87.1769 43.0836 87.1789 42.8136 87.181 42.5354C87.1823 42.2408 87.1835 41.9463 87.1848 41.6428C87.1881 41.3391 87.1914 41.0355 87.1947 40.7227C87.1965 40.413 87.1983 40.1033 87.2001 39.7842C87.2047 39.0228 87.2117 38.2614 87.2192 37.5Z" fill="#0C3E2E"/>
<path d="M105.578 41.4062C108.253 43.4258 110.364 45.9988 111.438 49.2188C111.663 51.2993 111.809 52.9532 110.632 54.7363C109.258 55.6135 108.38 55.8594 106.75 55.8594C105.103 55.1855 104.411 54.3067 103.625 52.7344C102.473 49.278 103.533 45.8678 104.797 42.5781C105.055 42.1914 105.313 41.8047 105.578 41.4062Z" fill="#0C3E2E"/>
<path d="M98.7468 58.8806C99.4843 59.5078 99.7748 60.0299 100.109 60.9375C100.229 62.6809 100.022 64.0522 98.9619 65.4541C96.9062 66.419 95.0128 66.3983 92.8614 65.6845C90.4171 64.5613 88.2107 62.9692 86.4375 60.9375C86.1461 60.0601 86.1461 60.0601 86.0469 59.375C90.2329 57.8403 94.6022 56.6441 98.7468 58.8806Z" fill="#0C3E2E"/>
<path d="M159.485 22.6562C159.375 25.9602 158.393 29.1251 156.07 31.578C154.704 32.625 153.391 33.2031 151.672 33.2031C150.061 32.5286 149.222 31.6895 148.547 30.0781C148.472 28.3894 149.075 27.411 150.085 26.123C152.509 23.5037 156.008 22.5772 159.485 22.6562Z" fill="#0C3E2E"/>
<path d="M139.172 26.5625C140.311 27.5083 140.335 27.6575 140.515 29.248C140.457 30.3697 140.293 30.9744 139.831 32.0312C138.406 33.0916 137.357 33.1107 135.609 33.0246C132.645 32.4655 130.655 30.2967 128.747 28.0975C128.216 27.3163 128.008 26.7051 127.844 25.7812C131.59 24.354 135.792 24.3308 139.172 26.5625Z" fill="#0C3E2E"/>
<path d="M156.75 9.76562C157.664 12.5088 157.723 16.8133 156.481 19.4824C155.572 20.7109 155.061 21.362 153.625 21.875C152.364 21.8235 151.508 21.5949 150.378 21.0449C149.366 19.9205 149.353 19.0751 149.328 17.5781C149.851 14.5377 151.976 12.6128 154.322 10.7849C155.783 9.76562 155.783 9.76562 156.75 9.76562Z" fill="#0C3E2E"/>
<path d="M130.969 12.8906C134.539 13.5793 137.535 14.5209 139.978 17.334C140.517 18.8449 140.523 19.8755 140.344 21.4844C139.758 22.4609 139.758 22.4609 138.781 23.0469C137.229 23.3014 136.299 23.3792 134.901 22.6562C132.59 20.9072 131.63 18.4813 131.179 15.6769C131.082 14.7471 131.008 13.8245 130.969 12.8906Z" fill="#0C3E2E"/>
<path d="M171.812 96.4523C173.9 97.4342 175.91 98.6479 177.453 100.391C177.453 100.648 177.453 100.906 177.453 101.172C176.835 101.425 176.217 101.677 175.598 101.929C175.253 102.069 174.909 102.21 174.554 102.354C172.151 103.261 169.766 103.588 167.346 102.588C166.125 101.953 166.125 101.953 165.344 101.172C165.125 99.9768 165.144 98.8534 165.344 97.6563C166.978 95.4953 169.439 95.6009 171.812 96.4523Z" fill="#0C3E2E"/>
<path d="M180.188 76.1719C180.23 77.2872 180.261 78.4009 180.285 79.5166C180.305 79.9853 180.305 79.9853 180.325 80.4634C180.362 82.7672 179.922 84.0314 178.625 85.9375C178.464 86.1873 178.303 86.437 178.137 86.6943C176.928 87.4284 175.669 87.3801 174.328 87.1094C173.132 86.3281 173.132 86.3281 172.375 85.1562C172.338 82.8445 172.834 81.4956 174.328 79.6875C177.947 76.1719 177.947 76.1719 180.188 76.1719Z" fill="#0C3E2E"/>
<path d="M166.906 77.3438C167.293 77.3438 167.68 77.3438 168.078 77.3438C168.332 77.8964 168.584 78.45 168.835 79.0039C168.975 79.3121 169.116 79.6202 169.261 79.9377C170.264 82.3727 170.464 84.8352 169.494 87.3047C168.859 88.2813 168.859 88.2813 168.078 88.6719C165.221 88.8533 165.221 88.8533 164.196 88.1592C163.253 86.6606 163.252 85.3184 163.391 83.5938C164.149 81.2611 165.345 79.2249 166.906 77.3438Z" fill="#0C3E2E"/>
<path d="M183.703 90.2344C183.176 91.8486 182.514 92.7138 181.237 93.8232C180.941 94.0866 180.644 94.3499 180.339 94.6213C178.364 96.0849 176.719 96.3215 174.328 96.0937C173.242 95.3416 172.87 94.8037 172.399 93.5791C172.367 92.2341 172.718 91.6748 173.547 90.625C176.309 88.477 180.642 88.7036 183.703 90.2344Z" fill="#0C3E2E"/>
<path d="M158.703 82.8125C161.066 84.5161 162.695 86.4644 163.189 89.4089C163.275 91.1863 163.294 92.2062 162.17 93.6279C160.861 94.2256 160.124 94.3825 158.703 94.1406C157.804 93.4113 157.266 92.8295 156.75 91.7969C156.443 88.6179 156.832 86.0395 158.312 83.2031C158.441 83.0742 158.57 82.9453 158.703 82.8125Z" fill="#0C3E2E"/>
<path d="M190.343 30.8594C190.601 30.9883 190.859 31.1172 191.125 31.25C191.167 32.3002 191.198 33.3487 191.222 34.3994C191.242 34.8401 191.242 34.8401 191.262 35.2898C191.301 37.5278 190.861 38.7917 189.562 40.625C188.39 41.4062 188.39 41.4062 187.023 41.333C185.646 41.0134 185.308 40.9143 184.484 39.8438C184.098 38.3262 184.211 36.8986 184.887 35.4858C186.323 33.4108 188.188 32.1238 190.343 30.8594Z" fill="#0C3E2E"/>
<path d="M186.828 51.88C187.541 51.8837 187.541 51.8837 188.268 51.8876C189.301 51.9399 190.145 52.0378 191.125 52.3438C190.14 54.4565 188.803 56.111 186.852 57.3975C185.444 57.8861 184.402 57.9802 182.921 57.8126C181.975 57.2134 181.794 56.7602 181.408 55.713C181.343 54.3574 181.701 53.7927 182.531 52.7344C183.918 51.7966 185.187 51.8608 186.828 51.88Z" fill="#0C3E2E"/>
<path d="M172.766 44.5312C175.647 44.8743 177.546 45.8543 179.35 48.111C179.797 48.8281 179.797 48.8281 180.066 50.0732C179.797 51.1719 179.797 51.1719 178.967 52.124C177.844 52.7344 177.844 52.7344 176.672 52.7832C174.719 52.0507 173.865 50.697 173.035 48.877C172.705 47.3773 172.713 46.0648 172.766 44.5312Z" fill="#0C3E2E"/>
<path d="M194.641 42.9687C193.871 45.645 193.142 47.614 190.734 49.2187C189.638 49.3859 188.733 49.3079 187.609 49.2187C186.637 47.7607 186.616 47.0373 186.828 45.3125C189.112 42.898 191.511 42.8594 194.641 42.9687Z" fill="#0C3E2E"/>
<path d="M178.234 35.5469C180.213 37.0307 181.86 38.5197 182.276 41.0629C182.325 42.2031 182.266 43.124 181.726 44.1406C180.512 44.7669 179.57 44.6982 178.234 44.5312C176.974 43.4386 176.842 42.2356 176.672 40.625C176.876 39.3845 176.876 39.3845 177.209 38.1592C177.371 37.5451 177.371 37.5451 177.536 36.9186C177.844 35.9375 177.844 35.9375 178.234 35.5469Z" fill="#0C3E2E"/>
<path d="M99.3281 87.8906C99.5859 87.8906 99.8438 87.8906 100.109 87.8906C100.695 89.0614 100.686 90.204 100.793 91.5039C100.839 92.0135 100.886 92.5231 100.933 93.0481C100.887 94.667 100.607 95.5311 99.7188 96.875C98.0584 97.4285 97.0943 96.9505 95.4219 96.4844C96.0188 94.4926 96.8712 92.7122 97.8145 90.8691C97.96 90.5816 98.1055 90.2941 98.2554 89.9979C98.6116 89.2947 98.9696 88.5926 99.3281 87.8906Z" fill="black"/>
<path d="M100.109 103.906C99.9121 106.34 98.8101 108.381 97.7656 110.547C94.782 108.569 94.782 108.569 94.2256 107.129C94.25 106.25 94.25 106.25 94.6406 105.469C95.4021 105.161 96.1781 104.89 96.96 104.639C97.3824 104.501 97.8049 104.363 98.2402 104.221C99.3281 103.906 99.3281 103.906 100.109 103.906Z" fill="black"/>
<path d="M142.688 195.703C142.816 195.961 142.945 196.219 143.078 196.484C142.736 197.51 142.736 197.51 141.906 198.437C140.719 198.612 139.582 198.55 138.391 198.437C138.133 197.793 137.875 197.148 137.609 196.484C139.46 195.356 140.578 195.165 142.688 195.703Z" fill="black"/>
<path d="M111.047 195.703C111.176 195.961 111.305 196.219 111.438 196.484C111.096 197.51 111.096 197.51 110.266 198.437C109.078 198.612 107.942 198.55 106.75 198.437C106.492 197.793 106.234 197.148 105.969 196.484C107.82 195.356 108.937 195.165 111.047 195.703Z" fill="black"/>
<path d="M121.984 196.875C122.961 197.656 122.961 197.656 123.547 198.437C122.937 199.243 122.937 199.243 121.984 200C120.67 199.932 119.65 199.809 118.469 199.219C118.225 198.218 118.225 198.218 118.078 197.266C119.323 196.643 120.633 196.669 121.984 196.875Z" fill="black"/>
<path d="M106.359 192.578C106.23 193.48 106.102 194.383 105.969 195.313C104.65 195.19 104.65 195.19 103.234 194.922C102.453 193.75 102.453 193.75 102.453 192.578C103.926 191.559 104.767 191.927 106.359 192.578Z" fill="black"/>
<path d="M93.8594 121.094C94.2461 121.223 94.6328 121.352 95.0312 121.484C95.1602 123.16 95.2891 124.836 95.4219 126.562C94.7773 126.434 94.1328 126.305 93.4687 126.172C93.085 124.589 93.0462 123.11 93.0781 121.484C93.3359 121.355 93.5937 121.227 93.8594 121.094Z" fill="black"/>
<path d="M164.27 194.458C164.624 194.611 164.979 194.764 165.344 194.922C165.215 195.824 165.086 196.727 164.953 197.656C164.051 197.527 163.148 197.398 162.219 197.266C161.961 196.621 161.703 195.977 161.438 195.313C162.502 194.248 162.76 194.081 164.27 194.458Z" fill="black"/>
<path d="M167.688 192.969C168.332 193.098 168.977 193.227 169.641 193.359C169.77 194.133 169.898 194.906 170.031 195.703C169.258 195.832 168.484 195.961 167.688 196.094C167.248 195.19 167.248 195.19 166.906 194.141C167.164 193.754 167.422 193.367 167.688 192.969Z" fill="black"/>
<path d="M88.3906 124.219C88.3906 124.863 88.3906 125.508 88.3906 126.172C87.7461 126.301 87.1016 126.43 86.4375 126.562C86.584 125.61 86.584 125.61 86.8281 124.609C87.6094 124.219 87.6094 124.219 88.3906 124.219Z" fill="black"/>
</svg>
