<svg width="45" height="42" viewBox="0 0 45 42" fill="none" xmlns="http://www.w3.org/2000/svg">
<path d="M22.8047 0.00415039C10.7519 0.00415039 0.969971 9.19784 0.969971 20.5258C0.969971 31.8537 10.7519 41.0474 22.8047 41.0474C34.8574 41.0474 44.6394 31.8537 44.6394 20.5258C44.6394 9.19784 34.8574 0.00415039 22.8047 0.00415039ZM32.936 13.9589C32.6085 17.2013 31.1892 25.0816 30.4687 28.7139C30.163 30.253 29.5516 30.7661 28.9839 30.8276C27.7175 30.9302 26.7568 30.0478 25.534 29.2885C23.6126 28.0982 22.5208 27.3595 20.6649 26.2103C18.5032 24.8764 19.9007 24.1376 21.1452 22.9473C21.4728 22.6395 27.0624 17.858 27.1716 17.427C27.1868 17.3617 27.1848 17.294 27.1657 17.2296C27.1467 17.1652 27.1113 17.1062 27.0624 17.0576C26.9314 16.955 26.7568 16.9961 26.6039 17.0166C26.4074 17.0576 23.3505 18.9661 17.3897 22.7421C16.5163 23.2962 15.7302 23.5835 15.0315 23.563C14.2455 23.5424 12.7607 23.1525 11.6471 22.8037C10.2716 22.3932 9.20165 22.1675 9.28899 21.4492C9.33266 21.0799 9.87853 20.7105 10.9048 20.3206C17.2805 17.7143 21.5164 15.9905 23.6344 15.1696C29.7044 12.7891 30.949 12.3787 31.7787 12.3787C31.9534 12.3787 32.3683 12.4197 32.6303 12.6249C32.8486 12.7891 32.9141 13.0149 32.936 13.179C32.9141 13.3022 32.9578 13.6715 32.936 13.9589Z" fill="#2697BE"/>
</svg>
